<svg xmlns="http://www.w3.org/2000/svg" viewBox="0 0 445.62 407.86"><defs><clipPath id="clip-path"><rect id="_Rectangle_" data-name="&lt;Rectangle&gt;" class="cls-1" x="137.67" y="20.47" width="188" height="242.07" rx="8.26" ry="8.26"/></clipPath><clipPath id="clip-path-2"><path id="_Rectangle_2" data-name="&lt;Rectangle&gt;" class="cls-1" d="M145.67 135.73h86v67.08h-86z"/></clipPath><clipPath id="clip-path-3"><path id="_Clipping_Path_" data-name="&lt;Clipping Path&gt;" class="cls-5" d="M353.74 231.11l18 68s.25 7.5 3.75 13.25l4.91 57.28s3.75 5.75 17.25 0c0 0 .59-41-4.41-66.53L389 254.5a73.07 73.07 0 00-.75-22.92z"/></clipPath><clipPath id="clip-path-4"><path id="_Clipping_Path_2" data-name="&lt;Clipping Path&gt;" class="cls-2" d="M357.44 139.13v-3.79s-6.49 1-7.38-.67.56-8.61.56-8.61-3.12.11-3.12-1.34 3.68-7.59 3.68-7.59-.44-4.92 0-6.48 5-10.39 5-10.39 6.7 3.68 6.48 5.69-2.12 3.91-.56 5.59 3.69 6.2 3 8.35l1 .7s.56-4 2.8-4.69 4 3.79 2.45 6.92-3.35 2.57-3.35 2.57.9 5.37 3.24 7.15l.71 5.59z"/></clipPath><clipPath id="clip-path-5"><path id="_Clipping_Path_3" data-name="&lt;Clipping Path&gt;" class="cls-1" d="M394.62 160.93s18.88 38.87 14.88 44.89-21.25 25.76-21.25 25.76l-7-8 14-23.76-7.25-14.74s-3.25-11.56 6.62-24.15z"/></clipPath><clipPath id="clip-path-6"><path id="_Clipping_Path_4" data-name="&lt;Clipping Path&gt;" class="cls-1" d="M335 230.67l3.73-30.67-1.51-46a9 9 0 016.52-9c12.7-3.68 39.89-8.2 50.88 15.94a11 11 0 01.85 6.45l-7.47 43 2 23.43s-24.34 17.85-55-3.15z"/></clipPath><clipPath id="clip-path-7"><rect id="_Rectangle_3" data-name="&lt;Rectangle&gt;" class="cls-8" x="114.05" y="240.51" width="45.55" height="34.89" rx="8.32" ry="8.32"/></clipPath><clipPath id="clip-path-8"><path id="_Clipping_Path_5" data-name="&lt;Clipping Path&gt;" class="cls-2" d="M162.17 277.15s62.09-4.16 64.92 4.61 4.16 36.84 4.3 48-.74 25.25-.74 25.25a19.72 19.72 0 01-11.44 0s-2.73-16.19-4.7-24.06-4.06-18.37-2.87-35c0 0-59.5 9-59.83-1.44s10.36-17.36 10.36-17.36z"/></clipPath><clipPath id="clip-path-9"><path id="_Clipping_Path_6" data-name="&lt;Clipping Path&gt;" class="cls-3" d="M232.09 351.44l-.43 4.2s-7.1 3.81-13.35.29L217 351.8s4.24 2.9 15.09-.36z"/></clipPath><clipPath id="clip-path-10"><path id="_Clipping_Path_7" data-name="&lt;Clipping Path&gt;" class="cls-2" d="M140.78 279.49s-8.81 17.6 2.45 19.16 45.68-.44 45.68-.44a174.54 174.54 0 00-11.44 21.58c-4.46 10.54-8.91 21.39-8.91 21.39s1.93 5.2 9.8 6.24c0 0 6.39-10 20.35-25.55s17.83-31.2 14.86-36.55-18.42-8.24-43.38-9.39z"/></clipPath><clipPath id="clip-path-11"><path id="_Clipping_Path_8" data-name="&lt;Clipping Path&gt;" class="cls-3" d="M181 345.93l-2.67 3.27s-8-.74-11.29-7.13l1.19-4.16s1.96 4.75 12.77 8.02z"/></clipPath><clipPath id="clip-path-12"><path id="_Clipping_Path_9" data-name="&lt;Clipping Path&gt;" class="cls-2" d="M166.35 205.45l1.33-7.8-10.05-8.67-2.85 13.06 11.57 3.41z"/></clipPath><clipPath id="clip-path-13"><path id="_Clipping_Path_10" data-name="&lt;Clipping Path&gt;" class="cls-1" d="M174.46 208.24l20.14.42 7.56-21 6.65 2.33s-3.41 26.59-6.82 28.17-24.23 3.8-24.23 3.8-6.41-7.09-3.3-13.72z"/></clipPath><clipPath id="clip-path-14"><path id="_Rectangle_4" data-name="&lt;Rectangle&gt;" class="cls-4" transform="rotate(-12.89 203.826 144.461)" d="M200.22 141.9h7.24v5.16h-7.24z"/></clipPath><clipPath id="clip-path-15"><path id="_Rectangle_5" data-name="&lt;Rectangle&gt;" class="cls-4" transform="rotate(-12.89 205.232 150.672)" d="M201.65 148.13h7.24v5.16h-7.24z"/></clipPath><clipPath id="clip-path-16"><path id="_Rectangle_6" data-name="&lt;Rectangle&gt;" class="cls-4" transform="rotate(-12.89 208.082 163.142)" d="M204.5 160.58h7.24v5.16h-7.24z"/></clipPath><clipPath id="clip-path-17"><path id="_Rectangle_7" data-name="&lt;Rectangle&gt;" class="cls-4" transform="rotate(-12.89 209.526 169.401)" d="M205.92 166.81h7.24v5.16h-7.24z"/></clipPath><clipPath id="clip-path-18"><path id="_Clipping_Path_11" data-name="&lt;Clipping Path&gt;" class="cls-1" d="M137 208.68l6.29 56.24-4 16.91s4.21.95 15.88-2.72 24.16-2.57 24.16-2.57 5.17-37.44 3.1-49.14a46.85 46.85 0 00-7.92-19.16s-22.41-9.8-36.1-2.31a2.77 2.77 0 00-1.41 2.75z"/></clipPath><clipPath id="clip-path-19"><path id="_Rectangle_8" data-name="&lt;Rectangle&gt;" class="cls-4" transform="rotate(79.11 197.388 268.142)" d="M194.49 266.08h5.8v4.13h-5.8z"/></clipPath><clipPath id="clip-path-20"><path id="_Rectangle_9" data-name="&lt;Rectangle&gt;" class="cls-4" transform="rotate(79.11 192.372 269.108)" d="M189.47 267.04h5.8v4.13h-5.8z"/></clipPath><clipPath id="clip-path-21"><path id="_Rectangle_10" data-name="&lt;Rectangle&gt;" class="cls-4" transform="rotate(79.11 182.333 271.035)" d="M179.43 268.98h5.79v4.13h-5.79z"/></clipPath><clipPath id="clip-path-22"><path id="_Rectangle_11" data-name="&lt;Rectangle&gt;" class="cls-4" transform="rotate(79.11 177.31 272.006)" d="M174.41 269.94h5.79v4.13h-5.79z"/></clipPath><clipPath id="clip-path-23"><path id="_Rectangle_12" data-name="&lt;Rectangle&gt;" class="cls-4" transform="rotate(49.11 191.906 255.84)" d="M189.01 253.79h5.79v4.13h-5.79z"/></clipPath><clipPath id="clip-path-24"><path id="_Rectangle_13" data-name="&lt;Rectangle&gt;" class="cls-4" transform="rotate(49.11 188.041 259.194)" d="M185.14 257.13h5.8v4.13h-5.8z"/></clipPath><clipPath id="clip-path-25"><path id="_Rectangle_14" data-name="&lt;Rectangle&gt;" class="cls-4" transform="rotate(49.11 180.317 265.884)" d="M177.42 263.83h5.79v4.13h-5.79z"/></clipPath><clipPath id="clip-path-26"><path id="_Rectangle_15" data-name="&lt;Rectangle&gt;" class="cls-4" transform="rotate(49.11 176.452 269.238)" d="M173.55 267.17h5.8v4.13h-5.8z"/></clipPath><clipPath id="clip-path-27"><path id="_Rectangle_16" data-name="&lt;Rectangle&gt;" class="cls-4" transform="rotate(19.11 180.325 247.608)" d="M177.45 245.57h5.8v4.13h-5.8z"/></clipPath><clipPath id="clip-path-28"><path id="_Rectangle_17" data-name="&lt;Rectangle&gt;" class="cls-4" transform="rotate(19.11 178.664 252.439)" d="M175.77 250.4h5.79v4.13h-5.79z"/></clipPath><clipPath id="clip-path-29"><path id="_Rectangle_18" data-name="&lt;Rectangle&gt;" class="cls-4" transform="rotate(19.11 175.312 262.106)" d="M172.43 260.06h5.8v4.13h-5.8z"/></clipPath><clipPath id="clip-path-30"><path id="_Rectangle_19" data-name="&lt;Rectangle&gt;" class="cls-4" transform="rotate(19.11 173.651 266.936)" d="M170.75 264.89h5.79v4.13h-5.79z"/></clipPath><clipPath id="clip-path-31"><path id="_Clipping_Path_12" data-name="&lt;Clipping Path&gt;" class="cls-6" d="M70.75 126.18c.09 2.68.37 10.72.37 10.72l15.93 9.56 1-18.22.55-25 2.62-3.64s3.92-6-2.62-8.33-4.72 1.97-11.22 2.73-21.73 11-14.83 19.93 8.04 7.77 8.2 12.25z"/></clipPath><clipPath id="clip-path-32"><path id="_Clipping_Path_13" data-name="&lt;Clipping Path&gt;" class="cls-6" d="M77 112.89s-6.42.17-2.95 5 7 3.91 7 3.91l3.9 7.45s13.62 1.92 16.83 1-2.34-12.14-2.34-12.14l2.13-2.44a1.31 1.31 0 00-.17-1.9l-5.08-4.08c.43-2.51-5.12-10.06-5.12-10.06s-8.24-.09-9 2.69a47.55 47.55 0 00-1.13 5l-4.68 1.91z"/></clipPath><clipPath id="clip-path-33"><path id="_Clipping_Path_14" data-name="&lt;Clipping Path&gt;" class="cls-3" d="M159.95 121.86l8.46-19.73 14.7 15.64-23.16 4.09z"/></clipPath><clipPath id="clip-path-34"><path id="_Clipping_Path_15" data-name="&lt;Clipping Path&gt;" class="cls-3" d="M179.92 100.1a3 3 0 11-3.47-2.43 3 3 0 013.47 2.43z"/></clipPath><clipPath id="clip-path-35"><path id="_Clipping_Path_16" data-name="&lt;Clipping Path&gt;" class="cls-7" d="M100 237.94S89.28 267.61 75.61 296c0 0-2.65 12.48-8.62 21L52 364.88s-6.58 2.71-14.38-2c0 0 3.72-30.64 13.23-52.87l5.61-17.61 7-35.46s-5.93-10.26-4.35-25.32l26.33-.36z"/></clipPath><clipPath id="clip-path-36"><path id="_Clipping_Path_17" data-name="&lt;Clipping Path&gt;" class="cls-3" d="M83.29 239.93l11.74-17.98 11.78 17.95-23.52.03z"/></clipPath><clipPath id="clip-path-37"><path id="_Clipping_Path_18" data-name="&lt;Clipping Path&gt;" class="cls-3" d="M106.72 221.93a3 3 0 11-3-3 3 3 0 013 3z"/></clipPath><clipPath id="clip-path-38"><path id="_Clipping_Path_19" data-name="&lt;Clipping Path&gt;" class="cls-3" d="M84.77 242l9.33-19.34 14 16.27L84.77 242z"/></clipPath><clipPath id="clip-path-39"><path id="_Clipping_Path_20" data-name="&lt;Clipping Path&gt;" class="cls-3" d="M105.69 221.13a3 3 0 11-3.37-2.58 3 3 0 013.37 2.58z"/></clipPath><style>.cls-1,.cls-3,.cls-35,.cls-4{fill:#92e3a9}.cls-1,.cls-10,.cls-12,.cls-16,.cls-2,.cls-20,.cls-27,.cls-3,.cls-35,.cls-5,.cls-6,.cls-63,.cls-7,.cls-8{stroke:#263238}.cls-1,.cls-10,.cls-12,.cls-16,.cls-2,.cls-20,.cls-24,.cls-27,.cls-3,.cls-36,.cls-5,.cls-6,.cls-63,.cls-7,.cls-73,.cls-8{stroke-linecap:round;stroke-linejoin:round}.cls-11,.cls-18,.cls-2,.cls-20,.cls-25,.cls-9{fill:#fff}.cls-10,.cls-20,.cls-24,.cls-3,.cls-35,.cls-5,.cls-63{stroke-width:.75px}.cls-21,.cls-27,.cls-5,.cls-8{fill:#263238}.cls-6,.cls-60,.cls-63{fill:#999}.cls-13,.cls-7{fill:#f77f00}.cls-9{opacity:.7}.cls-10,.cls-12,.cls-16,.cls-24,.cls-36,.cls-73{fill:none}.cls-11,.cls-35,.cls-45{opacity:.3}.cls-12,.cls-27{stroke-width:.5px}.cls-18,.cls-23{opacity:.5}.cls-24,.cls-36{stroke:#7f7f7f}.cls-30{opacity:.2}.cls-35{stroke-miterlimit:10}.cls-73{stroke:#f77f00}</style></defs><g id="Layer_2" data-name="Layer 2"><g id="Background_Simple" data-name="Background Simple"><path class="cls-4" d="M335.27 87.51c-33.6-59-86.46-91.92-150.16-87S118.46 53 118.46 106.34c0 52.72-75.28 28.13-99.28 91.72-18.7 49.55 29.94 140.08 52.34 177.66h317.76c12.33-42.59 34.73-126.41 37.16-180.66 4.37-97.54-64.36-60.45-91.17-107.55z"/><path class="cls-9" d="M335.27 87.51c-33.6-59-86.46-91.92-150.16-87S118.46 53 118.46 106.34c0 52.72-75.28 28.13-99.28 91.72-18.7 49.55 29.94 140.08 52.34 177.66h317.76c12.33-42.59 34.73-126.41 37.16-180.66 4.37-97.54-64.36-60.45-91.17-107.55z"/></g><g id="Plant"><path class="cls-4" d="M309 307.48s20.5-61.65-5.24-4.71c0 0-9.08-49.56-6.71 4.52 0 0-26.54-41.5-4.16 9 0 0-34.44-36.73 1.12 11.13 0 0 69.46-3.49 15.49-5.87 0 0 62.83-26.61 2.94-7.47-.01.02 53.56-53.01-3.44-6.6z"/><path class="cls-10" d="M304.62 308.85s-13.82 19.47-18.8 39.65"/><path class="cls-4" d="M266.76 309.46s-48.34-38.08-5.89 3.15c0 0-47.06-7.83 1.87 7.43 0 0-45.5 10.31 6.7 6.6 0 0-43.79 18.88 10.28 2.58 0 0 19.21-63-.25-15.68 0 0-3.52-64.53-5.71-5 0-.02-30.03-64.76-7 .92z"/><path class="cls-11" d="M266.76 309.46s-48.34-38.08-5.89 3.15c0 0-47.06-7.83 1.87 7.43 0 0-45.5 10.31 6.7 6.6 0 0-43.79 18.88 10.28 2.58 0 0 19.21-63-.25-15.68 0 0-3.52-64.53-5.71-5 0-.02-30.03-64.76-7 .92z"/><path class="cls-10" d="M289.57 350.35c-8.69-29-24-36.08-24-36.08"/><path class="cls-12" d="M286.37 312.83s6.2 5.82 7.85 13.73a48 48 0 0118.51-2.49"/><path class="cls-12" d="M292.92 306.56s4.26 5.17 1.3 20l16.3-11.43M281.58 313.56a35.38 35.38 0 00-2.58 13.88s-7 .78-11.74 3"/><path class="cls-12" d="M274 311.72a47.42 47.42 0 005 15.72s-4.46-4-16.26-4.66"/><path class="cls-5" d="M273.05 346.29h28.84l-4.43 27h-1.4v1.08a1.4 1.4 0 01-1.4 1.41h-1.34a1.4 1.4 0 01-1.4-1.41v-1.08H283v1.08a1.41 1.41 0 01-1.41 1.41h-1.34a1.41 1.41 0 01-1.4-1.41v-1.08h-1.4z"/></g><path class="cls-13" d="M400.22 375.72H62.72c-20.37 3.12-36.71 7.16-31.58 11.76 12 10.77 98.42-1.81 95.88 10.66s62.27 9.38 97.53 9.38 73.75-3.31 61.36-12.88 69.86-2.58 105.21-2.58c25.79 0 43.48-7.2 9.1-16.34z" id="Shadow"/><path class="cls-10" d="M.38 375.72h444.86" id="Floor"/><g id="Layout"><rect id="_Rectangle_20" data-name="&lt;Rectangle&gt;" class="cls-8" x="140.67" y="24.02" width="188" height="242.07" rx="8.26" ry="8.26"/><rect id="_Rectangle_21" data-name="&lt;Rectangle&gt;" class="cls-4" x="137.67" y="20.47" width="188" height="242.07" rx="8.26" ry="8.26"/><g clip-path="url(#clip-path)"><rect x="137.67" y="20.47" width="188" height="242.07" rx="8.26" ry="8.26" opacity=".8" fill="#fff"/></g><rect id="_Rectangle_22" data-name="&lt;Rectangle&gt;" class="cls-16" x="137.67" y="20.47" width="188" height="242.07" rx="8.26" ry="8.26"/><path class="cls-2" d="M145.67 55.06h172v67.08h-172z"/><path class="cls-10" d="M317.67 122.14l-172-67.08M145.67 122.14l172-67.08"/><path id="_Rectangle_23" data-name="&lt;Rectangle&gt;" class="cls-4" d="M145.67 135.73h86v67.08h-86z"/><g clip-path="url(#clip-path-2)"><path class="cls-18" d="M145.67 135.73h86v67.08h-86z"/></g><path id="_Rectangle_24" data-name="&lt;Rectangle&gt;" class="cls-16" d="M145.67 135.73h86v67.08h-86z"/><rect class="cls-5" x="192.92" y="32.04" width="77.5" height="3" rx="1.5" ry="1.5"/><path class="cls-5" d="M316.17 138.73h-74.5a1.5 1.5 0 01-1.5-1.5 1.5 1.5 0 011.5-1.5h74.5a1.5 1.5 0 011.5 1.5 1.5 1.5 0 01-1.5 1.5zM300.17 155.31h-58.5a1.5 1.5 0 01-1.5-1.5 1.5 1.5 0 011.5-1.5h58.5a1.5 1.5 0 011.5 1.5 1.5 1.5 0 01-1.5 1.5z"/><rect class="cls-5" x="240.17" y="164.04" width="53.75" height="3" rx="1.5" ry="1.5"/><path class="cls-5" d="M307.17 178.76h-65.5a1.5 1.5 0 01-1.5-1.5 1.5 1.5 0 011.5-1.5h65.5a1.5 1.5 0 011.5 1.5 1.5 1.5 0 01-1.5 1.5zM300.92 190.48h-59.25a1.5 1.5 0 01-1.5-1.5 1.5 1.5 0 011.5-1.5h59.25a1.5 1.5 0 011.5 1.5 1.5 1.5 0 01-1.5 1.5zM292.42 202.21h-50.75a1.5 1.5 0 01-1.5-1.5 1.5 1.5 0 011.5-1.5h50.75a1.5 1.5 0 011.5 1.5 1.5 1.5 0 01-1.5 1.5zM280.17 45.2h-97a1.5 1.5 0 01-1.5-1.5 1.5 1.5 0 011.5-1.5h97a1.5 1.5 0 011.5 1.5 1.5 1.5 0 01-1.5 1.5z"/><circle class="cls-3" cx="231.67" cy="236.2" r="16"/><circle class="cls-1" cx="183.67" cy="236.2" r="16"/><circle class="cls-1" cx="279.67" cy="236.2" r="16"/></g><g id="Character_3" data-name="Character 3"><path class="cls-2" d="M273.79 164.64h-26.84v-36.95h19.55l7.29 7.28v29.67z"/><path class="cls-5" d="M266.5 127.69v8.29h7.29v-1.01l-7.29-7.28z"/><path class="cls-2" d="M266.5 134.98h7.29l-7.29-7.29v7.29z"/><path d="M259.29 137h4.34l3.37 20.36h-3.21l-.58-4.05v.06h-3.64l-.58 4h-3zm3.49 13.62l-1.42-10.07h-.06l-1.4 10.07z" stroke="#92e3a9" stroke-width=".5" stroke-linecap="round" stroke-linejoin="round" fill="#92e3a9"/><path class="cls-20" d="M257.29 136h4.34l3.37 20.36h-3.21l-.58-4.05v.06h-3.64l-.58 4h-3zm3.49 13.62l-1.42-10.07h-.06l-1.4 10.07z"/><path id="_Clipping_Path_21" data-name="&lt;Clipping Path&gt;" class="cls-21" d="M353.74 231.11l18 68s.25 7.5 3.75 13.25l4.91 57.28s3.75 5.75 17.25 0c0 0 .59-41-4.41-66.53L389 254.5a73.07 73.07 0 00-.75-22.92z"/><g clip-path="url(#clip-path-3)"><path class="cls-23" d="M383.33 230s1.57 17.18-7.62 29.17-5.71 25.66-6.38 39.5-9.5-36.17-9.5-36.17l13.67-34.17z"/></g><path id="_Clipping_Path_22" data-name="&lt;Clipping Path&gt;" class="cls-10" d="M353.74 231.11l18 68s.25 7.5 3.75 13.25l4.91 57.28s3.75 5.75 17.25 0c0 0 .59-41-4.41-66.53L389 254.5a73.07 73.07 0 00-.75-22.92z"/><path class="cls-1" d="M381.44 369.61s-8.67 4-11.78 4c-2.13 0-6.11-2.15-8 2.84 0 0-2.26 4.41 11.44 6a143.86 143.86 0 0026.2.19 1.89 1.89 0 001.71-2.25l-.16-.89s-.34-6.57-4.42-9.85z"/><path class="cls-20" d="M370.61 379.92c-8.91-1.74-8.68-4.19-8.68-4.19-.11.22-.21.44-.31.69 0 0-2.26 4.41 11.44 6a143.86 143.86 0 0026.2.19 1.89 1.89 0 001.71-2.25l-.06-.33-8.13.73s-13.27.89-22.17-.84z"/><path class="cls-24" d="M381.25 301a11.56 11.56 0 009.87 3.59"/><path class="cls-5" d="M336.5 228.33s-4.5 11.75 3.75 62c0 0-1.5 4.75 1.5 14.25l4 32.25v32s2.75 6.75 19 0c0 0 .5-56.75-1.25-68.75l3.83-36.62a12.3 12.3 0 015-8.61c3.57-2.63 8.15-8.14 8.9-19.31z"/><path class="cls-1" d="M346.87 368.21s-9.57 4.4-13 4.37c-2.35 0-6.75-2.37-8.87 3.13 0 0-2.5 4.87 12.62 6.62a159.6 159.6 0 0028.93.22 2.09 2.09 0 001.88-2.49l-.18-1s-.38-7.25-4.88-10.87z"/><path class="cls-20" d="M334.91 379.58c-9.83-1.91-9.57-4.61-9.57-4.61a6.68 6.68 0 00-.34.76s-2.5 4.87 12.62 6.62a159.6 159.6 0 0028.93.22 2.09 2.09 0 001.88-2.49l-.07-.36-9 .8s-14.61.98-24.45-.94z"/><path class="cls-24" d="M349 297.58s3.92 4.7 11.75 4.06"/><path class="cls-5" d="M356.21 101.83s-8.09 3.63-8.71 0a11.07 11.07 0 004.91-3.75c2-2.75 12-2 12-2s17.63-1.65 15.38 7.37c0 0 7 6.6 1 16.24s-9.46 12.85-9.46 12.85l-6-1-8.33-25.33z"/><path id="_Clipping_Path_23" data-name="&lt;Clipping Path&gt;" class="cls-25" d="M357.44 139.13v-3.79s-6.49 1-7.38-.67.56-8.61.56-8.61-3.12.11-3.12-1.34 3.68-7.59 3.68-7.59-.44-4.92 0-6.48 5-10.39 5-10.39 6.7 3.68 6.48 5.69-2.12 3.91-.56 5.59 3.69 6.2 3 8.35l1 .7s.56-4 2.8-4.69 4 3.79 2.45 6.92-3.35 2.57-3.35 2.57.9 5.37 3.24 7.15l.71 5.59z"/><g clip-path="url(#clip-path-4)"><path class="cls-27" d="M350.06 134.67s3.31.83 10.56-2.13 7.43-7.15 7.43-7.15l.32.57s-.62 6.58-10.93 9.38c-8.32 2.25-8.32.62-8.32.62z"/></g><path id="_Clipping_Path_24" data-name="&lt;Clipping Path&gt;" class="cls-16" d="M357.44 139.13v-3.79s-6.49 1-7.38-.67.56-8.61.56-8.61-3.12.11-3.12-1.34 3.68-7.59 3.68-7.59-.44-4.92 0-6.48 5-10.39 5-10.39 6.7 3.68 6.48 5.69-2.12 3.91-.56 5.59 3.69 6.2 3 8.35l1 .7s.56-4 2.8-4.69 4 3.79 2.45 6.92-3.35 2.57-3.35 2.57.9 5.37 3.24 7.15l.71 5.59z"/><path class="cls-10" d="M357.11 126.06s-1.13 3.61-4.73 1.67M353.14 112.1a2.84 2.84 0 013.07 2"/><path d="M352.41 115.9c0 .74.33 1.34.73 1.34s.72-.6.72-1.34-.32-1.34-.72-1.34-.73.6-.73 1.34z" fill="#2e353a"/><path id="_Clipping_Path_25" data-name="&lt;Clipping Path&gt;" class="cls-4" d="M394.62 160.93s18.88 38.87 14.88 44.89-21.25 25.76-21.25 25.76l-7-8 14-23.76-7.25-14.74s-3.25-11.56 6.62-24.15z"/><g clip-path="url(#clip-path-5)"><path class="cls-30" d="M395.47 167.38s1.22 13.2 0 20 6.37 7.48 5.45 11.49-13.42 9.85-12.67 32.76-8.5-39-8.5-39l6.75-24.38 4.75-6.38z"/></g><path id="_Clipping_Path_26" data-name="&lt;Clipping Path&gt;" class="cls-16" d="M394.62 160.93s18.88 38.87 14.88 44.89-21.25 25.76-21.25 25.76l-7-8 14-23.76-7.25-14.74s-3.25-11.56 6.62-24.15z"/><path class="cls-10" d="M397.68 199.27a12.26 12.26 0 016.48 0"/><path class="cls-1" d="M353 144.83l4.5-7.36s12.5-5.11 18.75 0l3.5 9.86z"/><path id="_Clipping_Path_27" data-name="&lt;Clipping Path&gt;" class="cls-4" d="M335 230.67l3.73-30.67-1.51-46a9 9 0 016.52-9c12.7-3.68 39.89-8.2 50.88 15.94a11 11 0 01.85 6.45l-7.47 43 2 23.43s-24.34 17.85-55-3.15z"/><g clip-path="url(#clip-path-6)"><path class="cls-30" d="M345.53 152.31s7 8.74 0 25.77S369 203 369 206.67s11.5 1.73 12.25 5.45-15.5 7.21-14.88 16.21 18.88 8.12 18.88 8.12l-11 11.38-38.89-1-18.11-18.51 12.25-35.74 5.77-28.17 2-10.46z"/></g><path id="_Clipping_Path_28" data-name="&lt;Clipping Path&gt;" class="cls-16" d="M335 230.67l3.73-30.67-1.51-46a9 9 0 016.52-9c12.7-3.68 39.89-8.2 50.88 15.94a11 11 0 01.85 6.45l-7.47 43 2 23.43s-24.34 17.85-55-3.15z"/><path class="cls-10" d="M385.25 211.33s-37.5 8-39.5 0 10.5-3 20.62-4.25"/><path class="cls-2" d="M292.41 164l-12-4.35s-3.15-8.22-5.41-9.92-5-5-5.74-3.74c-.53.89.85 3.26 2.77 4.91 2.08 1.79 1.17 4.06.75 5s-3.77 2.48-6.47 3.43-9-1.4-10.61.23 2.53 2.17 2.53 2.17-3.08.23-3.36 2c-.16 1.07 2.91.4 4.44.24s4.67-.36 4.67-.36-5.32 1.85-4.93 3.33 4.11-.77 7.2-1.3c0 0-4.15 2.06-3.6 3.44s2.54-.61 6.1-2l7.46-1.71 12.13 6.63z"/><path class="cls-10" d="M259.37 161.72a19.24 19.24 0 005.16.46"/><path class="cls-1" d="M342.46 146a2.11 2.11 0 00-2.31.52l-21.45 22.79-35.17-9.71-3.89 9.8s26.68 14.93 40.24 14.11c10.29-.63 22.87-11.7 28.34-17a7.77 7.77 0 002.22-6.91"/><path class="cls-20" d="M287.08 168.41a1.19 1.19 0 11-1.37-1 1.18 1.18 0 011.37 1z"/><path class="cls-10" d="M318.35 176.13c1.14-2.95-.42-5.38 1.18-5.66s1.72 4.78 4.37 4.71"/></g><g id="Character_2" data-name="Character 2"><path class="cls-20" d="M194.83 376.57l-25.24-2.84v-57.1l12.95-7.78V306h-34.73v2.83l12.95 7.74v57.14l-25.24 2.84a4.64 4.64 0 00-4.12 4.61v2.34H199v-2.34a4.64 4.64 0 00-4.17-4.59zM133.37 272.54h6.9v31.34h-6.9z"/><rect class="cls-8" x="124.18" y="297.39" width="81.99" height="12.98" rx="4.33" ry="4.33"/><rect id="_Rectangle_25" data-name="&lt;Rectangle&gt;" class="cls-21" x="114.05" y="240.51" width="45.55" height="34.89" rx="8.32" ry="8.32"/><g clip-path="url(#clip-path-7)"><rect class="cls-23" x="121.65" y="240.51" width="45.55" height="34.89" rx="8.32" ry="8.32"/></g><rect id="_Rectangle_26" data-name="&lt;Rectangle&gt;" class="cls-16" x="114.05" y="240.51" width="45.55" height="34.89" rx="8.32" ry="8.32"/><path class="cls-10" d="M191.6 295.43a28.76 28.76 0 017.11-4.17M195.89 288.89s-7.25 5.94-5.78 6.83"/><path class="cls-5" d="M218.83 344.42l2.25 15.85s-4.21 3.44-4.42 12.8l7.42 2.64 2-2.64 6.62 6.9s11.73 5.28 13.33 1.75-4.87-6.14-10.34-13.9c-1.42-2-6.17-7.72-6.17-7.72l.47-16.54z"/><path id="_Clipping_Path_29" data-name="&lt;Clipping Path&gt;" class="cls-25" d="M162.17 277.15s62.09-4.16 64.92 4.61 4.16 36.84 4.3 48-.74 25.25-.74 25.25a19.72 19.72 0 01-11.44 0s-2.73-16.19-4.7-24.06-4.06-18.37-2.87-35c0 0-59.5 9-59.83-1.44s10.36-17.36 10.36-17.36z"/><g clip-path="url(#clip-path-8)"><path id="_Clipping_Path_30" data-name="&lt;Clipping Path&gt;" class="cls-23" d="M162.17 277.15s62.09-4.16 64.92 4.61 4.16 36.84 4.3 48-.74 25.25-.74 25.25a19.72 19.72 0 01-11.44 0s-2.73-16.19-4.7-24.06-4.06-18.37-2.87-35c0 0-59.5 9-59.83-1.44s10.36-17.36 10.36-17.36z"/><path class="cls-30" d="M203.63 279.88s14.93-.2 13.38 15.55-5.07 6.47-3.91 29.28-12.1-21.14-12.1-21.14v-19.95z"/></g><path id="_Clipping_Path_31" data-name="&lt;Clipping Path&gt;" class="cls-16" d="M162.17 277.15s62.09-4.16 64.92 4.61 4.16 36.84 4.3 48-.74 25.25-.74 25.25a19.72 19.72 0 01-11.44 0s-2.73-16.19-4.7-24.06-4.06-18.37-2.87-35c0 0-59.5 9-59.83-1.44s10.36-17.36 10.36-17.36z"/><path class="cls-10" d="M218.31 290.3s-.64 2.88-4.66 5.67"/><path id="_Clipping_Path_32" data-name="&lt;Clipping Path&gt;" class="cls-4" d="M232.09 351.44l-.43 4.2s-7.1 3.81-13.35.29L217 351.8s4.24 2.9 15.09-.36z"/><g clip-path="url(#clip-path-9)"><path class="cls-35" d="M232.09 351.44l-.43 4.2s-7.1 3.81-13.35.29L217 351.8s4.24 2.9 15.09-.36z"/></g><path id="_Clipping_Path_33" data-name="&lt;Clipping Path&gt;" class="cls-10" d="M232.09 351.44l-.43 4.2s-7.1 3.81-13.35.29L217 351.8s4.24 2.9 15.09-.36z"/><path class="cls-36" d="M229.11 361.52a53.46 53.46 0 017.48 9.39"/><path class="cls-5" d="M173.68 333.35l-6.93 14.43s-5.41.52-10.78 8.19l4.7 6.31 3.13-1.08 1.68 9.42s6.82 10.9 10.11 8.85-.63-7.81-.87-17.3c-.07-2.47-.85-9.85-.85-9.85l9.58-13.49z"/><path id="_Clipping_Path_34" data-name="&lt;Clipping Path&gt;" class="cls-25" d="M140.78 279.49s-8.81 17.6 2.45 19.16 45.68-.44 45.68-.44a174.54 174.54 0 00-11.44 21.58c-4.46 10.54-8.91 21.39-8.91 21.39s1.93 5.2 9.8 6.24c0 0 6.39-10 20.35-25.55s17.83-31.2 14.86-36.55-18.42-8.24-43.38-9.39z"/><g clip-path="url(#clip-path-10)"><path id="_Clipping_Path_35" data-name="&lt;Clipping Path&gt;" class="cls-23" d="M140.78 279.49s-8.81 17.6 2.45 19.16 45.68-.44 45.68-.44a174.54 174.54 0 00-11.44 21.58c-4.46 10.54-8.91 21.39-8.91 21.39s1.93 5.2 9.8 6.24c0 0 6.39-10 20.35-25.55s17.83-31.2 14.86-36.55-18.42-8.24-43.38-9.39z"/></g><path id="_Clipping_Path_36" data-name="&lt;Clipping Path&gt;" class="cls-16" d="M140.78 279.49s-8.81 17.6 2.45 19.16 45.68-.44 45.68-.44a174.54 174.54 0 00-11.44 21.58c-4.46 10.54-8.91 21.39-8.91 21.39s1.93 5.2 9.8 6.24c0 0 6.39-10 20.35-25.55s17.83-31.2 14.86-36.55-18.42-8.24-43.38-9.39z"/><path id="_Clipping_Path_37" data-name="&lt;Clipping Path&gt;" class="cls-4" d="M181 345.93l-2.67 3.27s-8-.74-11.29-7.13l1.19-4.16s1.96 4.75 12.77 8.02z"/><g clip-path="url(#clip-path-11)"><path class="cls-35" d="M181 345.93l-2.67 3.27s-8-.74-11.29-7.13l1.19-4.16s1.96 4.75 12.77 8.02z"/></g><path id="_Clipping_Path_38" data-name="&lt;Clipping Path&gt;" class="cls-10" d="M181 345.93l-2.67 3.27s-8-.74-11.29-7.13l1.19-4.16s1.96 4.75 12.77 8.02z"/><path class="cls-36" d="M172.51 353.68c.4 2.18 1.15 6.62 1.54 11.41"/><path class="cls-8" d="M169.3 174.22s7.65-3.8-.41-8.87-22.15 8.87-22.15 8.87l-1.37 6.51s.59 5.19 2.46 8.2c1.5 2.43 4.16 2.44 5.43 4.85 1.93 3.66 1.29 6.26 3.28 4.66 4.92-4 6.51-19.81 6.51-19.81z"/><path id="_Clipping_Path_39" data-name="&lt;Clipping Path&gt;" class="cls-25" d="M166.35 205.45l1.33-7.8-10.05-8.67-2.85 13.06 11.57 3.41z"/><g clip-path="url(#clip-path-12)"><path class="cls-27" d="M156.63 189.89s.83 4.5 3.28 7.33 8.84 6.19 8.84 6.19l.55-5.36-10-7.62-1.68-1.43z"/></g><path id="_Clipping_Path_40" data-name="&lt;Clipping Path&gt;" class="cls-16" d="M166.35 205.45l1.33-7.8-10.05-8.67-2.85 13.06 11.57 3.41z"/><path id="_Clipping_Path_41" data-name="&lt;Clipping Path&gt;" class="cls-25" d="M169.55 171.47s4.57 8 4.47 10.31c0 0 6 15.75 0 18.34-4.66 2-10.51-1.9-12.8-3.68a6.23 6.23 0 01-1.55-1.8l-1.95-3.43s-2.4.69-4.59-2.43.06-6.08 2.47-4.24c0 0 1.82-3.77 1.25-5.85s2.16-2.11 2.28-4.32c.03 0 6.52-.23 10.42-2.9z"/><path id="_Clipping_Path_42" data-name="&lt;Clipping Path&gt;" class="cls-16" d="M169.55 171.47s4.57 8 4.47 10.31c0 0 6 15.75 0 18.34-4.66 2-10.51-1.9-12.8-3.68a6.23 6.23 0 01-1.55-1.8l-1.95-3.43s-2.4.69-4.59-2.43.06-6.08 2.47-4.24c0 0 1.82-3.77 1.25-5.85s2.16-2.11 2.28-4.32c.03 0 6.52-.23 10.42-2.9z"/><path class="cls-10" d="M168.71 193.06s1.48 2 4.49-.67M171.2 183.73c.55 2.16-.09 4.18-1.43 4.52s-2.87-1.12-3.42-3.27.33-3 1.67-3.33 2.63-.07 3.18 2.08z"/><path class="cls-20" d="M177.32 182c.55 2.16.11 4.13-1 4.41s-2.43-1.24-3-3.39.15-2.94 1.24-3.22 2.21 0 2.76 2.2z"/><path class="cls-10" d="M165.64 181.59a3 3 0 014.07-1.36M172.26 179.36a2 2 0 011.27-1.46M166.35 184.98l-2.55 1.03-8.17-1.47M173.28 182.61l-2.04.83"/><path class="cls-21" d="M170.06 184.25c.08.68-.19 1.27-.62 1.32s-.83-.47-.91-1.15.2-1.27.62-1.32.85.46.91 1.15zM175.06 182.44c.08.67-.1 1.23-.41 1.27s-.61-.48-.68-1.14.1-1.23.4-1.26.63.47.69 1.13z"/><path class="cls-20" d="M172.75 182.84l4.2 3.69a.86.86 0 01-.11 1.37l-2.16 1.35"/><path class="cls-8" d="M149 174.49s-.74-13.3-11.06-8-.46 20.9-3.55 24.34 2.82 1.9 3.55-.59.13 4.15 1.56 4.39 1.66-5.7 3-5.7-.35 3.7.72 4.11 3.56-7.26 4.27-11.5a66.47 66.47 0 011.51-7.05z"/><path class="cls-1" d="M149 172.68s-3.61 4-2.2 14c-.04-.02-7.03-10.15 2.2-14z"/><path class="cls-5" d="M157.51 174.22s4 1.11 4.55 4.41 2.41-7.58-4.55-4.41zM170.78 173.51s4.35-1.31 5.65 1.54c0 0-.64-6.87-5.65-1.54z"/><path class="cls-2" d="M205.15 170.65c.88-.24 1.79.9 1.79.9.94-1.6 2.44 1.06 2.44 1.06 1.26-1.54 1.9 1.83 1.9 1.83s1.33-.31 1.17 1.38c-.21 2.22-2.79 7.3-2.79 7.3l-1.68 8.6-6.29-.74 2-8.25-1.85-3.62a10.37 10.37 0 01-1-4.66c.27-2.05 3.43-3.57 4.31-3.8z"/><path class="cls-20" d="M205.16 172.71s1.88 3.93 1.65 0c0 0 1.37 4.87 2.24.91 0 0-.53 4.55 1.32 2 0 0-.78 1.36-.43 2s1.34-.41 1.34-.41"/><path id="_Clipping_Path_43" data-name="&lt;Clipping Path&gt;" class="cls-4" d="M174.46 208.24l20.14.42 7.56-21 6.65 2.33s-3.41 26.59-6.82 28.17-24.23 3.8-24.23 3.8-6.41-7.09-3.3-13.72z"/><g clip-path="url(#clip-path-13)"><path class="cls-30" d="M172.75 207.56a13.42 13.42 0 018.86 6.71c3.45 5.94 13.57 5.41 13.57 5.41l3.53 4.93-14.71 5.1-10.83-3.71-5.49-10.69v-3.08z"/></g><path id="_Clipping_Path_44" data-name="&lt;Clipping Path&gt;" class="cls-16" d="M174.46 208.24l20.14.42 7.56-21 6.65 2.33s-3.41 26.59-6.82 28.17-24.23 3.8-24.23 3.8-6.41-7.09-3.3-13.72z"/><path class="cls-1" d="M200.97 189.28l7.84 2.67.53-3.57-7.42-2.36-.95 3.26z"/><path class="cls-20" d="M212 179.73a5.61 5.61 0 01-6.73-4.22l-7.77-33.95 11-2.51 7.7 33.95a5.62 5.62 0 01-4.2 6.73z"/><path id="_Rectangle_27" data-name="&lt;Rectangle&gt;" class="cls-4" transform="rotate(-12.89 203.826 144.461)" d="M200.22 141.9h7.24v5.16h-7.24z"/><g clip-path="url(#clip-path-14)"><path class="cls-9" transform="rotate(-12.89 203.826 144.461)" d="M200.22 141.9h7.24v5.16h-7.24z"/></g><path id="_Rectangle_28" data-name="&lt;Rectangle&gt;" class="cls-4" transform="rotate(-12.89 205.232 150.672)" d="M201.65 148.13h7.24v5.16h-7.24z"/><g clip-path="url(#clip-path-15)"><path class="cls-11" transform="rotate(-12.89 205.232 150.672)" d="M201.65 148.13h7.24v5.16h-7.24z"/></g><path class="cls-4" transform="rotate(-12.89 206.676 156.931)" d="M203.07 154.36h7.24v5.16h-7.24z"/><path id="_Rectangle_29" data-name="&lt;Rectangle&gt;" class="cls-4" transform="rotate(-12.89 208.082 163.142)" d="M204.5 160.58h7.24v5.16h-7.24z"/><g clip-path="url(#clip-path-16)"><path class="cls-30" transform="rotate(-12.89 208.082 163.142)" d="M204.5 160.58h7.24v5.16h-7.24z"/></g><path id="_Rectangle_30" data-name="&lt;Rectangle&gt;" class="cls-4" transform="rotate(-12.89 209.526 169.401)" d="M205.92 166.81h7.24v5.16h-7.24z"/><g clip-path="url(#clip-path-17)"><path class="cls-45" transform="rotate(-12.89 209.526 169.401)" d="M205.92 166.81h7.24v5.16h-7.24z"/></g><path class="cls-20" d="M202.47 173.73a1.19 1.19 0 012.06-.65c1.62 1.19 4 1.58 3.73 2.32s-.89 1.19-3.21.25c0 0-.41.25.17 1a6 6 0 011.54 2.94"/><path id="_Clipping_Path_45" data-name="&lt;Clipping Path&gt;" class="cls-4" d="M137 208.68l6.29 56.24-4 16.91s4.21.95 15.88-2.72 24.16-2.57 24.16-2.57 5.17-37.44 3.1-49.14a46.85 46.85 0 00-7.92-19.16s-22.41-9.8-36.1-2.31a2.77 2.77 0 00-1.41 2.75z"/><g clip-path="url(#clip-path-18)"><path d="M146.31 222.68s3.12 11.54 2.65 18.51 16.12 5.54 15.34 10.29-16.39 10-16.9 14.41-6.27 15.23 11.08 12.29-13 13.07-13 13.07L119 285.84l8.87-23.27 9-38.64z" opacity=".12"/></g><path id="_Clipping_Path_46" data-name="&lt;Clipping Path&gt;" class="cls-16" d="M137 208.68l6.29 56.24-4 16.91s4.21.95 15.88-2.72 24.16-2.57 24.16-2.57 5.17-37.44 3.1-49.14a46.85 46.85 0 00-7.92-19.16s-22.41-9.8-36.1-2.31a2.77 2.77 0 00-1.41 2.75z"/><path class="cls-1" d="M151.15 203.41l2.95-5.76a99 99 0 0010.35 2.88c5.67 1.24 4.3 2.88 4.3 2.88l-1.45 4.37s-2.23 2.22-16.15-4.37z"/><path class="cls-16" d="M140.19 247s3.21-2.53 4-1.45-.9.72-2.17 4.4"/><path class="cls-20" d="M169 273.66a4.51 4.51 0 013.57-5.27l27.36-5.26 1.7 8.83-27.36 5.26a4.5 4.5 0 01-5.27-3.56z"/><path id="_Rectangle_31" data-name="&lt;Rectangle&gt;" class="cls-4" transform="rotate(79.11 197.388 268.142)" d="M194.49 266.08h5.8v4.13h-5.8z"/><g clip-path="url(#clip-path-19)"><path class="cls-9" transform="rotate(79.11 197.388 268.142)" d="M194.49 266.08h5.8v4.13h-5.8z"/></g><path id="_Rectangle_32" data-name="&lt;Rectangle&gt;" class="cls-4" transform="rotate(79.11 192.372 269.108)" d="M189.47 267.04h5.8v4.13h-5.8z"/><g clip-path="url(#clip-path-20)"><path class="cls-11" transform="rotate(79.11 192.372 269.108)" d="M189.47 267.04h5.8v4.13h-5.8z"/></g><path class="cls-4" transform="rotate(79.11 187.35 270.068)" d="M184.45 268.01h5.79v4.13h-5.79z"/><path id="_Rectangle_33" data-name="&lt;Rectangle&gt;" class="cls-4" transform="rotate(79.11 182.333 271.035)" d="M179.43 268.98h5.79v4.13h-5.79z"/><g clip-path="url(#clip-path-21)"><path class="cls-30" transform="rotate(79.11 182.333 271.035)" d="M179.43 268.98h5.79v4.13h-5.79z"/></g><path id="_Rectangle_34" data-name="&lt;Rectangle&gt;" class="cls-4" transform="rotate(79.11 177.31 272.006)" d="M174.41 269.94h5.79v4.13h-5.79z"/><g clip-path="url(#clip-path-22)"><path class="cls-45" transform="rotate(79.11 177.31 272.006)" d="M174.41 269.94h5.79v4.13h-5.79z"/></g><path class="cls-20" d="M170.06 274.84a4.5 4.5 0 01.45-6.35l21.06-18.24 5.89 6.8-21.06 18.24a4.49 4.49 0 01-6.34-.45z"/><path id="_Rectangle_35" data-name="&lt;Rectangle&gt;" class="cls-4" transform="rotate(49.11 191.906 255.84)" d="M189.01 253.79h5.79v4.13h-5.79z"/><g clip-path="url(#clip-path-23)"><path class="cls-9" transform="rotate(49.11 191.906 255.84)" d="M189.01 253.79h5.79v4.13h-5.79z"/></g><path id="_Rectangle_36" data-name="&lt;Rectangle&gt;" class="cls-4" transform="rotate(49.11 188.041 259.194)" d="M185.14 257.13h5.8v4.13h-5.8z"/><g clip-path="url(#clip-path-24)"><path class="cls-11" transform="rotate(49.11 188.041 259.194)" d="M185.14 257.13h5.8v4.13h-5.8z"/></g><path class="cls-4" transform="rotate(49.11 184.176 262.547)" d="M181.28 260.48h5.79v4.13h-5.79z"/><path id="_Rectangle_37" data-name="&lt;Rectangle&gt;" class="cls-4" transform="rotate(49.11 180.317 265.884)" d="M177.42 263.83h5.79v4.13h-5.79z"/><g clip-path="url(#clip-path-25)"><path class="cls-30" transform="rotate(49.11 180.317 265.884)" d="M177.42 263.83h5.79v4.13h-5.79z"/></g><path id="_Rectangle_38" data-name="&lt;Rectangle&gt;" class="cls-4" transform="rotate(49.11 176.452 269.238)" d="M173.55 267.17h5.8v4.13h-5.8z"/><g clip-path="url(#clip-path-26)"><path class="cls-45" transform="rotate(49.11 176.452 269.238)" d="M173.55 267.17h5.8v4.13h-5.8z"/></g><path class="cls-20" d="M170.91 275a4.5 4.5 0 01-2.77-5.72l9.12-26.28 8.49 2.94-9.12 26.33a4.49 4.49 0 01-5.72 2.73z"/><path id="_Rectangle_39" data-name="&lt;Rectangle&gt;" class="cls-4" transform="rotate(19.11 180.325 247.608)" d="M177.45 245.57h5.8v4.13h-5.8z"/><g clip-path="url(#clip-path-27)"><path class="cls-9" transform="rotate(19.11 180.325 247.608)" d="M177.45 245.57h5.8v4.13h-5.8z"/></g><path id="_Rectangle_40" data-name="&lt;Rectangle&gt;" class="cls-4" transform="rotate(19.11 178.664 252.439)" d="M175.77 250.4h5.79v4.13h-5.79z"/><g clip-path="url(#clip-path-28)"><path class="cls-11" transform="rotate(19.11 178.664 252.439)" d="M175.77 250.4h5.79v4.13h-5.79z"/></g><path class="cls-4" transform="rotate(19.11 177.003 257.27)" d="M174.1 255.23h5.79v4.13h-5.79z"/><path id="_Rectangle_41" data-name="&lt;Rectangle&gt;" class="cls-4" transform="rotate(19.11 175.312 262.106)" d="M172.43 260.06h5.8v4.13h-5.8z"/><g clip-path="url(#clip-path-29)"><path class="cls-30" transform="rotate(19.11 175.312 262.106)" d="M172.43 260.06h5.8v4.13h-5.8z"/></g><path id="_Rectangle_42" data-name="&lt;Rectangle&gt;" class="cls-4" transform="rotate(19.11 173.651 266.936)" d="M170.75 264.89h5.79v4.13h-5.79z"/><g clip-path="url(#clip-path-30)"><path class="cls-45" transform="rotate(19.11 173.651 266.936)" d="M170.75 264.89h5.79v4.13h-5.79z"/></g><path class="cls-2" d="M160.4 258.53l7.58 5.53s8.6 0 10.16 2.35 2 5 .6 5.95.73-2.54-3.16-4.31c0 0 2 9.07-1.47 7.13 0 0-.45 1.54-1.76.13a5 5 0 00-.48-3.32 2.39 2.39 0 00-1.83-1.44s2.44 3.33.83 4.24c-1.3.73-2-4.06-3.74-4.6a5.34 5.34 0 01-4.45-3L156.8 264z"/><path class="cls-10" d="M174.41 273.77a6.52 6.52 0 00-1.32-4.73M176.29 266.49s-.16.69-1.72.54c-1.15-.11-2.84 2.21-4.6 1.86"/><path class="cls-1" d="M138.61 207.13a.85.85 0 00-1.48.2c-1.65 4.24-6.07 18.41-3.69 43.53 0 0 1.91 5.13 24.35 14.93l4.27-6.6-16.59-13.47s2.17-18 .53-24.72"/><path class="cls-1" d="M161.07 257.67l-5.15 8.34 4.04 1.45 4.34-7.29-3.23-2.5z"/></g><g id="Character_1" data-name="Character 1"><path id="_Clipping_Path_47" data-name="&lt;Clipping Path&gt;" class="cls-60" d="M70.75 126.18c.09 2.68.37 10.72.37 10.72l15.93 9.56 1-18.22.55-25 2.62-3.64s3.92-6-2.62-8.33-4.72 1.97-11.22 2.73-21.73 11-14.83 19.93 8.04 7.77 8.2 12.25z"/><g clip-path="url(#clip-path-31)"><path class="cls-8" d="M76.86 121.41a7.4 7.4 0 003.26 1.59s2.47 7 3.71 7.94 5.66 1.69 5.66 1.69l1.3-9.23-9.18-6-5-1.5z"/></g><path id="_Clipping_Path_48" data-name="&lt;Clipping Path&gt;" class="cls-16" d="M70.75 126.18c.09 2.68.37 10.72.37 10.72l15.93 9.56 1-18.22.55-25 2.62-3.64s3.92-6-2.62-8.33-4.72 1.97-11.22 2.73-21.73 11-14.83 19.93 8.04 7.77 8.2 12.25z"/><path class="cls-8" d="M88.6 103.26l2.62-3.64s3.92-6-2.62-8.33-4.72 1.95-11.22 2.71-21.73 11-14.83 19.93c4.48 5.84 6.54 7.37 7.47 9a3.78 3.78 0 014.76.55C77.38 126 80 111.56 80 111.56l8.52-6z"/><path id="_Clipping_Path_49" data-name="&lt;Clipping Path&gt;" class="cls-60" d="M77 112.89s-6.42.17-2.95 5 7 3.91 7 3.91l3.9 7.45s13.62 1.92 16.83 1-2.34-12.14-2.34-12.14l2.13-2.44a1.31 1.31 0 00-.17-1.9l-5.08-4.08c.43-2.51-5.12-10.06-5.12-10.06s-8.24-.09-9 2.69a47.55 47.55 0 00-1.13 5l-4.68 1.91z"/><g clip-path="url(#clip-path-32)"><path class="cls-45" d="M80.12 105.34l.95 2s4.12 2.82 4.34 4.34c.28 2-1.85 3.38 2.5 7.63s8.52-.69 11.55-1.21 5.55 7.2 5.55 7.2l-.34 7-16.76.52-3.63-2.25-4.75-8s5.15-.46 2.58-5c-3.56-6.27-7.72-5.38-7.72-5.38l-2.87-2.55 7.38-5.31z"/></g><path id="_Clipping_Path_50" data-name="&lt;Clipping Path&gt;" class="cls-16" d="M77 112.89s-6.42.17-2.95 5 7 3.91 7 3.91l3.9 7.45s13.62 1.92 16.83 1-2.34-12.14-2.34-12.14l2.13-2.44a1.31 1.31 0 00-.17-1.9l-5.08-4.08c.43-2.51-5.12-10.06-5.12-10.06s-8.24-.09-9 2.69a47.55 47.55 0 00-1.13 5l-4.68 1.91z"/><path class="cls-21" d="M95.09 110.35c.26.77.22 1.49-.1 1.6s-.79-.43-1-1.21-.21-1.48.1-1.59.74.43 1 1.2z"/><path class="cls-16" d="M93.82 106.73s-2.34-.52-3 2.69M98.46 119.67s-.81 2.26-3.9 1.12"/><path class="cls-6" d="M154.9 119.24c1 .43 1.08 2.24 1.08 2.24 2.14-.87 1.62 2.87 1.62 2.87 2.39-.57.5 3.24.5 3.24s1.55.7.12 2.24c-1.88 2-8.24 5.1-8.24 5.1l-8.12 7.24-5.65-5.46 8.14-6.67.9-5s.75-3.48 2.55-5.31 6.05-.92 7.1-.49z"/><path class="cls-6" d="M153.37 121.28s-1.11 5.3 1.63 1.22c0 0-2.3 5.84 1.53 2.59 0 0-3.95 4.09-.19 2.93 0 0-1.78.76-1.92 1.64s1.63.6 1.63.6"/><path class="cls-8" d="M70.35 164s14.47 3.37 45.47-1.2c0 0 23.81-12.44 29.89-23.89l-5.65-6.49-29.23 16.38s-30.46-4.7-36.1-4z"/><path class="cls-63" transform="rotate(-10.01 174.634 108.724)" d="M149.82 90.27h49.62v36.87h-49.62z"/><path class="cls-8" transform="rotate(-10.01 153.47 98.126)" d="M150.87 96.17h5.2v3.86h-5.2z"/><path id="_Clipping_Path_51" data-name="&lt;Clipping Path&gt;" class="cls-4" d="M159.95 121.86l8.46-19.73 14.7 15.64-23.16 4.09z"/><g clip-path="url(#clip-path-33)"><path class="cls-18" d="M159.95 121.86l8.46-19.73 14.7 15.64-23.16 4.09z"/></g><path id="_Clipping_Path_52" data-name="&lt;Clipping Path&gt;" class="cls-10" d="M159.95 121.86l8.46-19.73 14.7 15.64-23.16 4.09z"/><path class="cls-3" d="M175.25 119.16l6.46-15.07 11.23 11.95-17.69 3.12z"/><path id="_Clipping_Path_53" data-name="&lt;Clipping Path&gt;" class="cls-4" d="M179.92 100.1a3 3 0 11-3.47-2.43 3 3 0 013.47 2.43z"/><g clip-path="url(#clip-path-34)"><path class="cls-9" d="M179.92 100.1a3 3 0 11-3.47-2.43 3 3 0 013.47 2.43z"/></g><path id="_Clipping_Path_54" data-name="&lt;Clipping Path&gt;" class="cls-10" d="M179.92 100.1a3 3 0 11-3.47-2.43 3 3 0 013.47 2.43z"/><path class="cls-6" d="M149.93 119.26a1.48 1.48 0 012.52.92c.71 2.38 3.77 3.57 2.94 4.08s-2.77 1.51-4.36-1.16c0 0-.59-.06-.55 1.09.05 1.4 0 3.15-.69 4.05"/><path class="cls-8" d="M39.43 362.83a28.78 28.78 0 00-5.38 11.39 3.14 3.14 0 002.46 3.78l20.3 4.17c4.46.92 11.29.73 14.74.56a2.8 2.8 0 002.66-3.26 5.23 5.23 0 00-2.93-3.51c-4.8-2.66-16.21-4.45-20.91-11.66z"/><path id="_Clipping_Path_55" data-name="&lt;Clipping Path&gt;" class="cls-13" d="M100 237.94S89.28 267.61 75.61 296c0 0-2.65 12.48-8.62 21L52 364.88s-6.58 2.71-14.38-2c0 0 3.72-30.64 13.23-52.87l5.61-17.61 7-35.46s-5.93-10.26-4.35-25.32l26.33-.36z"/><g clip-path="url(#clip-path-35)"><path d="M58.94 251.22l4.51 5.78s6.48 43.36 11.31 42.39 7.95-24.07 7.95-24.07l-19.09-48.44-7.89 7.57-4.43 6.48z" opacity=".2" fill="#f77f00" stroke-linecap="round" stroke-linejoin="round" stroke="#263238"/></g><path id="_Clipping_Path_56" data-name="&lt;Clipping Path&gt;" class="cls-16" d="M100 237.94S89.28 267.61 75.61 296c0 0-2.65 12.48-8.62 21L52 364.88s-6.58 2.71-14.38-2c0 0 3.72-30.64 13.23-52.87l5.61-17.61 7-35.46s-5.93-10.26-4.35-25.32l26.33-.36z"/><path class="cls-8" d="M84.8 367.59s-3.2 4.27-3.37 11.89a3.34 3.34 0 003.35 3.37h22c4.83 0 11.88-1.65 15.43-2.56a3 3 0 002.07-4 5.58 5.58 0 00-3.79-3c-5.56-1.73-17.79-1.16-24.21-7.65z"/><path class="cls-7" d="M98.06 228.8s4.41 31.91 0 63.14c0 0 .27 13-2.85 22.9l2.49 51.27s-5.35 4.16-14.2 2.08c0 0-9.11-32.27-7-55.43l-1-18.48-7-38.25s-8.13-6-11.19-20.82l25-8.33z"/><path class="cls-8" d="M68.67 136.05s-10.93 8.33-12.5 29.15-4.94 64.28 1.83 75.73c0 0 6.5-11.69 41.64-7 0 0 3.64-17.44-1.83-51.53s-11.71-42.7-29.14-46.35z"/><path class="cls-8" d="M68.67 137.09l1-6.5A24.37 24.37 0 0184 136.18c4.65 3.92 6.12 7.68 2.73 12.1l-18.06-10.41z"/><path class="cls-24" d="M86.47 145.84c-3.81-4.93-8.68-7.56-15.28-9.23M94.91 166.58c-1.85-7.82-3.93-13.62-6.55-18"/><path class="cls-63" transform="rotate(-.08 92.956 214.924)" d="M75.21 211.06h49.62v36.87H75.21z"/><path class="cls-8" transform="rotate(-.08 78.637 207.752)" d="M78.4 213.47h5.2v3.86h-5.2z"/><path id="_Clipping_Path_57" data-name="&lt;Clipping Path&gt;" class="cls-4" d="M83.29 239.93l11.74-17.98 11.78 17.95-23.52.03z"/><g clip-path="url(#clip-path-36)"><path class="cls-18" d="M83.29 239.93l11.74-17.98 11.78 17.95-23.52.03z"/></g><path id="_Clipping_Path_58" data-name="&lt;Clipping Path&gt;" class="cls-10" d="M83.29 239.93l11.74-17.98 11.78 17.95-23.52.03z"/><path class="cls-3" d="M98.83 239.91l8.96-13.73 9 13.7-17.96.03z"/><path id="_Clipping_Path_59" data-name="&lt;Clipping Path&gt;" class="cls-4" d="M106.72 221.93a3 3 0 11-3-3 3 3 0 013 3z"/><g clip-path="url(#clip-path-37)"><path class="cls-9" d="M106.72 221.93a3 3 0 11-3-3 3 3 0 013 3z"/></g><path id="_Clipping_Path_60" data-name="&lt;Clipping Path&gt;" class="cls-10" d="M106.72 221.93a3 3 0 11-3-3 3 3 0 013 3z"/><path class="cls-20" transform="rotate(-7.48 100.067 229.54)" d="M75.21 211.06h49.62v36.87H75.21z"/><path class="cls-8" transform="rotate(-7.48 79.315 217.967)" d="M76.75 216.04h5.2v3.86h-5.2z"/><path id="_Clipping_Path_61" data-name="&lt;Clipping Path&gt;" class="cls-4" d="M84.77 242l9.33-19.34 14 16.27L84.77 242z"/><g clip-path="url(#clip-path-38)"><path class="cls-18" d="M84.77 242l9.33-19.34 14 16.27L84.77 242z"/></g><path id="_Clipping_Path_62" data-name="&lt;Clipping Path&gt;" class="cls-10" d="M84.77 242l9.33-19.34 14 16.27L84.77 242z"/><path class="cls-3" d="M100.18 239.97l7.12-14.76 10.69 12.42-17.81 2.34z"/><path id="_Clipping_Path_63" data-name="&lt;Clipping Path&gt;" class="cls-4" d="M105.69 221.13a3 3 0 11-3.37-2.58 3 3 0 013.37 2.58z"/><g clip-path="url(#clip-path-39)"><path class="cls-9" d="M105.69 221.13a3 3 0 11-3.37-2.58 3 3 0 013.37 2.58z"/></g><path id="_Clipping_Path_64" data-name="&lt;Clipping Path&gt;" class="cls-10" d="M105.69 221.13a3 3 0 11-3.37-2.58 3 3 0 013.37 2.58z"/><path class="cls-6" d="M93.32 228.8l5.25 7.48 6 1.39c2.46.57 3.76 1.11 4.7 3.47.67 1.69.22 2.21-1 2.65 0 0 3.58 6.87-.15 6.2 0 0 .31 3.15-3.41 2 0 0-1.19 2.13-3.77.4 0 0-2 1.53-4.78-3.64l-4-7.36-5.89-6.64z"/><path class="cls-6" d="M107.76 247.77s.5 2.08-1.55 2-1.68 2-6.47 1.27"/><path class="cls-8" d="M65 154s-5.2 15.61-2.34 50c0 0 12.81 27.06 25.92 34.61l8.17-6.77-15.85-32.29s8.1-33.05 7.7-39.29"/><path class="cls-24" d="M86.74 173.7c1.19-6 2.05-11.31 1.91-13.44M81.8 201.28l-.8-1.73s3-12.23 5.26-23.22M86.21 210.26l-3.36-6.84M62.45 200.29c.08 1.21.17 2.43.28 3.69a153.7 153.7 0 0010.63 18.44M65.07 154s-4.53 13.61-2.81 43.36"/></g><g id="Pen"><path class="cls-16" d="M397.65 97.6a107.08 107.08 0 00-6-25.76M366.88 33.12a.86.86 0 01.13.14M364.05 30.48c-.44-.41-.89-.8-1.34-1.18-11.14-9.57-19.84-11.7-23.49-12.18"/><path class="cls-16" transform="rotate(-26.03 337.642 16.746)" d="M336.39 15.49h2.5v2.5h-2.5z"/><path class="cls-16" transform="rotate(-26.03 397.762 98.936)" d="M396.5 97.69h2.5v2.5h-2.5z"/><path class="cls-8" d="M378.8 44.81l1.34 1.34a.91.91 0 01-.26.44.93.93 0 01-.42.26l-1.35-1.36-11.81-11.78.7-.71z"/><path class="cls-8" d="M380.4 45.08a1.41 1.41 0 01.35 1.44 1.3 1.3 0 01-.34.6 1.52 1.52 0 01-.57.34 1.45 1.45 0 01-1.47-.34 1.46 1.46 0 01-.35-1.48 1.42 1.42 0 01.35-.57 1.28 1.28 0 01.59-.35 1.42 1.42 0 011.44.36z"/><path class="cls-16" d="M363.9 30.48l-11.59-11.49M352.53 17.72a1.12 1.12 0 11-1.5-.54 1.12 1.12 0 011.5.54zM367.03 30.48l-.02 2.5-.13.14-.15.16-.53.54-2.51-.02.01-3.32h3.33z"/><path stroke="#5c5c5c" stroke-miterlimit="10" fill="none" d="M367.01 32.98v.84h-.81l.53-.54.15-.16.13-.14z"/><path class="cls-16" d="M389.65 39.3l4.2 11.06-9.76 9.78-11.06-4.16-7.82-21.17 1.52-1.53.15-.16 1.57-1.57 21.2 7.75zM406.87 57.38l-14.9 14.93-7.88-12.16 9.76-9.79 13.02 7.02z"/><path class="cls-16" d="M388.95 59.03l6.01-6.03 5.6 2.99M387.08 60.91l.6-.61"/></g><g id="Lamp"><path class="cls-73" d="M98.7 43A15.43 15.43 0 1070 54.44c2.29 5.74 8.41 7.8 13.11 11.19C84.6 66.69 86.6 72 86.6 72l12.16-4.85s-2.2-5.22-1.86-7C98 54.46 101 48.75 98.7 43z"/><path class="cls-73" d="M87.16 70.25h13.09v.34A3.41 3.41 0 0196.84 74h-6.27a3.41 3.41 0 01-3.41-3.41v-.34z" transform="rotate(-21.74 93.685 72.121)"/><path d="M87.16 70.25h13.09v.34A3.41 3.41 0 0196.84 74h-6.27a3.41 3.41 0 01-3.41-3.41v-.34h0z" transform="rotate(-21.74 93.685 72.121)" stroke="#f77f00" opacity=".5" fill="none" stroke-linecap="round" stroke-linejoin="round"/><path class="cls-73" d="M92.23 74.57h6.12v.28a2.78 2.78 0 01-2.78 2.78H95a2.78 2.78 0 01-2.78-2.78v-.28z" transform="rotate(-21.73 95.299 76.093)"/><path d="M92.23 74.57h6.12v.28a2.78 2.78 0 01-2.78 2.78H95a2.78 2.78 0 01-2.78-2.78v-.28h0z" transform="rotate(-21.73 95.299 76.093)" stroke="#f77f00" opacity=".2" fill="none" stroke-linecap="round" stroke-linejoin="round"/><path class="cls-73" d="M75.93 15.98l3.53 13.2M74.5 10.65l.72 2.69M60.62 54.47l-13.51 3.62M65.64 53.13l-2.29.61M117.55 39.21L103.41 43M121.93 38.04l-2.01.54M74.75 65l-9.59 16.61M103.89 14.52L94.3 31.13M67.58 38.29l-16.6-9.59M103.97 59.3l-2.51-1.46M118.06 67.43l-11.78-6.8"/></g></g></svg>