<svg xmlns="http://www.w3.org/2000/svg" viewBox="0 0 596.63 390.65"><defs><clipPath id="clip-path"><path class="cls-1" d="M213.19 320.42a7.3 7.3 0 00.54 5.11c-.24.11-.06 1.08.37 1.29s4.16.19 4.9-.39a.8.8 0 000-.66s.92.35 3.52-.14a13.15 13.15 0 005-1.89c.31-.19.09-.88-.25-.77 0 0-.22-1.81-1.73-1.71a11.38 11.38 0 01-6.89-2 5.69 5.69 0 00-2.06-.9 3.51 3.51 0 00-3.4 2.06z"/></clipPath><clipPath id="clip-path-2"><path class="cls-1" d="M137.87 311.5a7.38 7.38 0 00-4 3.24c-.22-.14-.94.54-.88 1s2.12 3.58 3 3.89a.79.79 0 00.53-.38s.21 1 2 2.87a13.37 13.37 0 004.3 3.17c.33.15.8-.41.52-.64 0 0 1.39-1.17.48-2.38a11.34 11.34 0 01-2.06-6.87 5.7 5.7 0 00-.37-2.21 3.52 3.52 0 00-3.52-1.69z"/></clipPath><clipPath id="clip-path-3"><path class="cls-2" d="M418.87 314.92a28.69 28.69 0 012.38 2.29c.34.5 1.66 4.23 1.66 4.23a3.2 3.2 0 01-2.06 1.42l-1.66-2.14s-.84 3.74-1.7 4.95c-1 1.46-7 3.15-7.86 2.7 0 0-1.09-2.17.77-3.36 3.44-2.2 3.52-6.82 3.52-6.82a3.23 3.23 0 014.95-3.27z"/></clipPath><clipPath id="clip-path-4"><path class="cls-2" d="M432.49 317.66a27.72 27.72 0 011.42 3c.14.59 0 4.53 0 4.53a3.16 3.16 0 01-2.43.6l-.79-2.58a10.8 10.8 0 01-2.45 3.35c-1.49 1-6.79 2.23-7.68 1.79 0 0-1.22-2.37.75-3.38 4.92-2.52 5.35-6 5.35-6a3.24 3.24 0 015.83-1.31z"/></clipPath><style>.cls-1{fill:#ed0c37}.cls-2{fill:#fd6141}.cls-4{fill:#71bf9d}.cls-16,.cls-21,.cls-22,.cls-23,.cls-5,.cls-6{fill:none}.cls-5,.cls-6{stroke:#e57e55}.cls-22,.cls-5,.cls-6{stroke-linecap:round}.cls-5,.cls-6{stroke-linejoin:round}.cls-5{stroke-width:1px}.cls-6{stroke-width:.8px}.cls-13,.cls-15,.cls-7{fill:#fff}.cls-8{fill:#ffd25a}.cls-54,.cls-9{fill:#ffbe57}.cls-13,.cls-15,.cls-16,.cls-22,.cls-23{stroke-miterlimit:10}.cls-11,.cls-25{fill:#764582}.cls-12{fill:#9d68aa}.cls-13,.cls-15,.cls-16{stroke:#764582}.cls-13{stroke-width:.97px}.cls-44{fill-rule:evenodd}.cls-15{stroke-width:1.02px}.cls-16{stroke-width:1.26px}.cls-18,.cls-29{fill:#a1abad}.cls-18{opacity:.7}.cls-18,.cls-54{mix-blend-mode:multiply}.cls-19{fill:#dd4026}.cls-20{fill:#e2e2e2}.cls-22,.cls-23{stroke:#efe9da;stroke-width:1.16px}.cls-25{opacity:.2}.cls-26{fill:#e4bce8}.cls-32{fill:#3e2344}.cls-33{fill:#ffdcae}.cls-35{fill:#ff8976}.cls-37,.cls-44{fill:#ffb072}.cls-39{fill:#ffaec1}.cls-40{fill:#552f5e}.cls-45,.cls-46{fill:#e57e55}.cls-46,.cls-54{opacity:.5}.cls-53{fill:#f7b614}</style></defs><g style="isolation:isolate"><g id="Layer_2" data-name="Layer 2"><g id="OBJECTS"><path class="cls-4" d="M519.56 278.65c-1.85-9.52-19.54-11.1-19.54-11.1s10.34-17.25 3-25.05-24.17 10.5-24.17 10.5-5.57-11.59-13.84 0c0 0-13.79-10.53-25.71-5.12-8.52 3.86-7.26 14.07-5.85 19.6H199.3a5.77 5.77 0 00-.76-1.18c-7.91-9.55-30.85-4.64-30.85-4.64s9.58-23.66-6.21-30.83-34.07 6.78-34.07 6.78c-11-15.35-18.33 0-18.33 0s-22.33-24.29-32-13.95 4 33.19 4 33.19-23.5 2.15-25.95 14.74 40.56 25.71 40.56 25.71l393.26.75s32.46-9.88 30.61-19.4z"/><path class="cls-5" d="M117.32 293.59a175.59 175.59 0 00-31.53-55M117.32 294.31a340.89 340.89 0 014.92-47.17M113.07 283.33a115.77 115.77 0 00-32.38-10.46M102.66 261.87a57.87 57.87 0 004.17-15"/><path class="cls-6" d="M471.18 295.35a141 141 0 0125.24-44M471.19 295.92a275 275 0 00-3.94-37.76M474.58 287.13a92.57 92.57 0 0125.93-8.37M482.92 270a46.46 46.46 0 01-3.34-12"/><path class="cls-7" d="M97.3 229.28a1.42 1.42 0 01.49.25 1.31 1.31 0 01.35.42.43.43 0 01-.21.57.38.38 0 01-.27 0 1.51 1.51 0 01-.49-.25 1.31 1.31 0 01-.35-.42.45.45 0 01.2-.58.45.45 0 01.28.01zM98.9 230.57a1.31 1.31 0 01.48.26 1.47 1.47 0 01.35.43.44.44 0 01-.24.57.42.42 0 01-.27 0 1.59 1.59 0 01-.48-.26 1.44 1.44 0 01-.34-.43.45.45 0 01.22-.57.45.45 0 01.28 0zM100.46 231.9a1.27 1.27 0 01.48.28 1.14 1.14 0 01.33.44.43.43 0 01-.24.56.51.51 0 01-.27 0 1.35 1.35 0 01-.48-.28 1.59 1.59 0 01-.33-.43.45.45 0 01.24-.57.42.42 0 01.27 0zM103.17 234.35a1.44 1.44 0 01.46.29 1.36 1.36 0 01.32.46.44.44 0 01-.27.55.5.5 0 01-.27 0 1.23 1.23 0 01-.46-.3 1.32 1.32 0 01-.32-.44.45.45 0 01.26-.56.53.53 0 01.28 0zM105 236.15a.61.61 0 01.31.16.48.48 0 01.15.31.5.5 0 01-.45.54h-.1a.48.48 0 01-.3-.15.54.54 0 01-.16-.3.52.52 0 01.45-.55zM106.56 237.74a.49.49 0 01.3.16.49.49 0 01-.32.84h-.1a.49.49 0 01-.3-.16.45.45 0 01-.14-.31.51.51 0 01.46-.54zM79.4 223.94a8.51 8.51 0 014.53-1.18 13 13 0 014.54 1 28.54 28.54 0 014.06 2.14 40.45 40.45 0 013.72 2.65.39.39 0 01-.47.62c-1.22-.87-2.47-1.7-3.74-2.46a26.8 26.8 0 00-4-2 12.18 12.18 0 00-4.18-1 8.09 8.09 0 00-4.1.9.43.43 0 01-.53-.16.36.36 0 01.17-.51zM79 225.11c0 .16-.17.24-.24.36a.85.85 0 01-.37.24.47.47 0 01-.57-.29.33.33 0 010-.22 1 1 0 01.25-.44.83.83 0 01.44-.24.45.45 0 01.52.37.53.53 0 01-.03.22zM77.86 226.32a1 1 0 01-.15.42c-.1.11-.16.24-.31.32a.45.45 0 01-.61-.15.36.36 0 01-.07-.22.75.75 0 01.14-.47 1.07 1.07 0 01.36-.34.43.43 0 01.59.22.44.44 0 01.05.22zM77.06 227.76c-.07.3-.15.58-.24.86l-.22.87c-.14.57-.26 1.15-.42 1.74a.41.41 0 01-.49.27.39.39 0 01-.29-.36 8.57 8.57 0 01.23-1.89l.29-.92a8.72 8.72 0 01.42-.87.39.39 0 01.55-.12.42.42 0 01.17.42zM76.05 232.76a.45.45 0 01.1.27.46.46 0 01-.12.27.55.55 0 01-.77 0 .4.4 0 01-.1-.28.49.49 0 01.12-.28.55.55 0 01.76 0zM76.05 234.58a.37.37 0 01.12.27.38.38 0 01-.1.27.55.55 0 01-.76 0 .37.37 0 01-.12-.28.42.42 0 01.1-.28.54.54 0 01.76 0zM502.49 254.11a1.72 1.72 0 010 .6 1.52 1.52 0 01-.24.54.42.42 0 01-.61.06.45.45 0 01-.15-.24 1.59 1.59 0 010-.58 1.42 1.42 0 01.23-.54.43.43 0 01.61-.08.41.41 0 01.16.24zM502 256.26a1.45 1.45 0 010 .59 1.27 1.27 0 01-.27.53.42.42 0 01-.61 0 .44.44 0 01-.13-.25 1.39 1.39 0 01.05-.58 1.43 1.43 0 01.25-.53.43.43 0 01.61-.05.4.4 0 01.1.29zM501.37 258.38a1.65 1.65 0 01-.06.59 1.5 1.5 0 01-.29.52.41.41 0 01-.61 0 .5.5 0 01-.13-.25 1.6 1.6 0 01.07-.58 1.35 1.35 0 01.28-.51.41.41 0 01.61 0 .44.44 0 01.13.23zM500.14 262.09a1.64 1.64 0 01-.4 1.09.43.43 0 01-.62 0 .41.41 0 01-.11-.26 1.65 1.65 0 01.39-1.07.43.43 0 01.74.26zM499.15 264.69a.62.62 0 010 .36.66.66 0 01-.24.29.49.49 0 01-.68-.2v-.09a.66.66 0 010-.37.67.67 0 01.23-.28.48.48 0 01.68.19.42.42 0 01.01.1zM498.24 266.86a.54.54 0 010 .36.64.64 0 01-.24.28.5.5 0 01-.68-.22v-.1a.54.54 0 010-.36.61.61 0 01.24-.27.48.48 0 01.67.21.3.3 0 01.01.1zM491.38 245a18.26 18.26 0 014.49-2 6.49 6.49 0 015 .38 4.1 4.1 0 011.67 2.06 8.78 8.78 0 01.52 2.5 20 20 0 01-.44 4.9.4.4 0 01-.47.32.39.39 0 01-.3-.45 22 22 0 00.27-4.71c-.13-1.5-.57-3.09-1.77-3.77a5.48 5.48 0 00-4.28-.31 19 19 0 00-4.34 1.8.39.39 0 11-.39-.68zM490.77 246.14a1.17 1.17 0 01-.35.35 1.16 1.16 0 01-.46.17.44.44 0 01-.48-.42.33.33 0 010-.22 1 1 0 01.35-.37 1.26 1.26 0 01.47-.17.44.44 0 01.47.44.54.54 0 010 .22zM489.24 247.15a1.19 1.19 0 01-.33.37 1.12 1.12 0 01-.46.19.45.45 0 01-.5-.4.59.59 0 010-.23 1.14 1.14 0 01.34-.38 1.16 1.16 0 01.47-.19.43.43 0 01.48.41.45.45 0 010 .23zM487.75 248.23c-.46.46-1 .87-1.47 1.29s-1 .82-1.57 1.17a.4.4 0 01-.56-.11.41.41 0 01.05-.48 13.33 13.33 0 011.45-1.36 12.54 12.54 0 011.64-1.13.38.38 0 01.54.14.41.41 0 01-.08.48zM483.46 251.8a.44.44 0 01-.14.27.45.45 0 01-.29.12.53.53 0 01-.53-.55.47.47 0 01.44-.4.51.51 0 01.52.56zM482 253.15a.44.44 0 01-.13.29.41.41 0 01-.28.12.53.53 0 01-.55-.53.45.45 0 01.42-.41.53.53 0 01.55.54z"/><path class="cls-8" d="M292.28 193.05c-59.89-1-220 48.63-239.59 0C36.59 153 96.8 156 100.3 122.85s-12.18-47.32 12.81-62.68 65.72 6 92.61-15.37S246.65 7.93 307.19.56s105.35 60.84 131.25 67.6 63-10.45 81.22 10.44-40.61 67.14-28 86.42 43.46 29.73 31.53 56.77S350.58 194 292.28 193.05z"/><path class="cls-7" d="M53.27 174.49a1.91 1.91 0 01.15-.76 2.41 2.41 0 01.38-.68.39.39 0 01.64 0 .69.69 0 01.08.32 2.44 2.44 0 01-.17.73 3.41 3.41 0 01-.35.65c-.19.24-.47.28-.63.08a.51.51 0 01-.1-.34zM54.37 171.8a2.51 2.51 0 01.71-1.35c.25-.2.53-.17.64.07a.49.49 0 010 .32 2.8 2.8 0 01-.26.7 2.75 2.75 0 01-.43.6c-.22.22-.51.22-.64 0a.59.59 0 01-.02-.34zM55.8 169.28a2.44 2.44 0 01.33-.69 2.17 2.17 0 01.53-.56c.26-.18.54-.12.63.13a.62.62 0 010 .33 2.58 2.58 0 01-.34.66 2.64 2.64 0 01-.5.56c-.25.18-.53.14-.63-.09a.49.49 0 01-.02-.34zM59 165.25a2.52 2.52 0 01.45-.62 2.15 2.15 0 01.62-.45c.29-.13.55 0 .6.23a.65.65 0 01-.06.33 3 3 0 01-.45.59 2.67 2.67 0 01-.59.46c-.27.14-.55.05-.61-.2a.58.58 0 01.04-.34zM61.62 162.75a1 1 0 01.28-.38 1 1 0 01.43-.2.41.41 0 01.51.49.27.27 0 010 .12.92.92 0 01-.28.36.83.83 0 01-.41.2.41.41 0 01-.53-.47zM64.09 160.9a1 1 0 01.77-.51.41.41 0 01.45.55v.11a.92.92 0 01-.32.33 1 1 0 01-.43.16.43.43 0 01-.56-.54.37.37 0 01.09-.1zM59.78 199.84c-.73-.78-1.34-1.66-2-2.48s-1.16-1.78-1.7-2.7-1-1.89-1.42-2.86l-1.17-3a24.77 24.77 0 01-1.27-6.27 19.75 19.75 0 01.65-6.36c.08-.29.31-.47.51-.4a.46.46 0 01.24.58 20.32 20.32 0 00-.45 6.12 23.5 23.5 0 001.26 6l1.12 2.89c.42 1 .91 1.86 1.36 2.79S58 196 58.5 196.86s1.19 1.69 1.87 2.47a.44.44 0 010 .63.48.48 0 01-.59-.12zM61.28 200.45a2.13 2.13 0 01.5.38 1.61 1.61 0 01.39.5c.12.28 0 .55-.26.59a.5.5 0 01-.27 0 2 2 0 01-.56-.35 1.59 1.59 0 01-.36-.55c-.11-.3 0-.56.29-.59a.65.65 0 01.27.02zM63 202.08a2.44 2.44 0 01.54.33 1.58 1.58 0 01.43.46.4.4 0 01-.21.62.5.5 0 01-.27 0 1.68 1.68 0 01-.58-.3 1.49 1.49 0 01-.42-.51.4.4 0 01.24-.61.5.5 0 01.27.01zM64.86 203.55l2.14 1.27 2.21 1.24a.44.44 0 01.23.59.48.48 0 01-.55.12 13.79 13.79 0 01-2.38-1.08 16.09 16.09 0 01-2.14-1.5c-.22-.21-.26-.49-.1-.64a.48.48 0 01.59 0zM71.24 206.84a.73.73 0 01.39 0 .69.69 0 01.33.22.45.45 0 01-.21.74.68.68 0 01-.4 0 .74.74 0 01-.34-.22.45.45 0 01.23-.73zM73.68 207.49a.64.64 0 01.38 0 .67.67 0 01.35.17.45.45 0 01-.09.76.73.73 0 01-.41 0 .71.71 0 01-.37-.18.46.46 0 01.14-.76z"/><path class="cls-9" d="M294.37 31.61q-42.08 6.84-65.46 38.3c-14.54 19.16-11.43 43.78 1 62.94 11.43 18.24 33.25 24.62 54 29.18 58.19 13.69 111.18 31 166.25 48.35 23.9 7.29 51.95 18.24 72.73 1.82a6.5 6.5 0 002.43-6.44c-3.31-16.14-24-25.77-33.77-40.71-12.6-19.28 46.21-65.52 28-86.42s-55.31-3.68-81.22-10.44a36.28 36.28 0 01-10-4.78c-46.24-10.31-82.85-39.72-133.96-31.8z"/><path d="M500.67 224.72c-24.48 0-66.52-9.4-107.17-18.48-40-8.94-77.8-17.39-101.12-17.75h-1.82c-19.18 0-47.42 4.6-77.32 9.46-34.48 5.61-73.56 12-103.89 12-29.86 0-46.79-6-51.76-18.36-7.67-19.09 3.65-25.91 19.31-35.34 12.56-7.56 26.8-16.14 28.57-32.92 1.25-11.85.14-21.46-.76-29.18-1.71-14.47-2.52-21.7 11.38-30.25 6-3.68 13.44-5.25 24.9-5.25 4.37 0 8.83.22 13.55.44s9.71.47 14.62.47c12 0 27.33-1.29 40-11.37 2.48-2 4.84-3.88 7.15-5.74 22.16-17.92 38.17-30.87 91.56-37.38a70.32 70.32 0 018.45-.51c33.91 0 62.74 24.56 85.89 44.29C416.08 60.62 427 69.93 437 72.53a66.75 66.75 0 0016.88 1.87c6.08 0 12.36-.52 18.43-1s11.76-1 17.25-1c12.75 0 20.53 2.68 26 9 7.53 8.65-4 26.19-14.18 41.67-11.12 16.92-21.63 32.9-14.2 44.25 4.28 6.57 10.33 12 16.18 17.28 12.28 11.05 22 19.77 15 35.58-1.36 2.91-7.6 4.54-17.69 4.54z" stroke-width=".97" stroke-miterlimit="10" stroke="#fff" fill="none"/><rect class="cls-11" x="145.67" y="97.22" width="320.48" height="176.96" rx="3.85" ry="3.85"/><rect class="cls-12" x="140.06" y="90.54" width="320.48" height="176.97" rx="3.85" ry="3.85"/><rect class="cls-13" x="134.46" y="83.86" width="320.48" height="176.96" rx="2.12" ry="2.12"/><path d="M152.32 99h20.5v-1.18h-20.5zm-4.82.6h2.41v-2.38h-2.41zm4.82 6h20.5v-1.21h-20.5zm-4.82.6h2.41v-2.41h-2.41zm4.82 6h20.5V111h-20.5zm-4.82.6h2.41v-2.41h-2.41z" fill-rule="evenodd" fill="#764582"/><rect class="cls-15" x="147.5" y="123.56" width="91.02" height="88.24" rx="15.11" ry="15.11"/><rect class="cls-15" x="249.74" y="123.56" width="91.02" height="88.24" rx="15.11" ry="15.11"/><rect class="cls-15" x="351.98" y="123.56" width="91.02" height="88.24" rx="15.11" ry="15.11"/><path class="cls-11" d="M420.72 106.24l-1.53-10.19a.57.57 0 00-.56-.49h-2.74v-1.28h2.74a1.83 1.83 0 011.81 1.56l.17 1.14 17.28.11-1.77 8zm.09-8l1 6.64 13.3-1 1.23-5.59z"/><path class="cls-11" d="M436.36 108.64l-14.94-.08a1.15 1.15 0 01-.83-.39 1.11 1.11 0 01-.25-.89l.3-1.81 1.25.2-.27 1.62 14.75.09z"/><path class="cls-16" d="M425.23 111.14a1.71 1.71 0 11-1.69-1.71 1.71 1.71 0 011.69 1.71zM434.18 111.2a1.71 1.71 0 01-3.41 0 1.71 1.71 0 113.41 0z"/><path stroke-width="1.02" stroke="#764582" fill="#fff" stroke-linejoin="round" stroke-linecap="round" d="M249.3 217.9h91.46"/><path class="cls-18" d="M330.62 179.54c0 1.25-14.94 2.27-33.36 2.27s-33.36-1-33.36-2.27 14.93-2.26 33.36-2.26 33.36 1.02 33.36 2.26z"/><path class="cls-19" d="M270.7 156s.67-1.69 6.51.53c3.17 1.2 7.3 4.1 15.33.6 0 0 2.45 8.12-7.79 7.41A17 17 0 01270.7 156z"/><path class="cls-20" d="M327.65 169l2.37.62c1.35.72 1.28 4.3.17 5.41 0 0-9.58 5.6-37.62 6.08-16.13-.31-26.92-3.07-27.41-4.17a14.36 14.36 0 01-.45-5.28l3-3.54z"/><path class="cls-2" d="M270.7 156s-3.16 3-3.53 5.53c-.54 3.59-1.15 5.37-.76 9 0 0 9.1 3.55 24.25 3.73a156.92 156.92 0 0026.06-1.77c6.68-1.19 13.3-2.79 13.3-2.79-1.93-6.75-7.76-4.24-16.08-6.88-5.66-1.79-19.13-12.91-19.13-12.91s-3.12 2.32-3.29 3.51c-.11.75 1.38 2.71 1.38 2.71s-.38 6.38-6.75 6.81c-6.15.37-15.45-6.94-15.45-6.94z"/><path class="cls-21" d="M330 169.66a36.48 36.48 0 01-12.37 4.84c-7.5 1.45-19.76 1.94-27.4 1.65-8.45-.33-25.54-4.45-25.54-4.45"/><path class="cls-22" d="M292.9 156.09a21.19 21.19 0 014.37.41c2.69.94 10.48 7.16 16.32 7.9"/><path class="cls-20" d="M302.54 155.85l-2.6 4.21c-.36.49-1.92-.63-1.56-1.12l2.41-4.44c.52-.67 2.27.68 1.75 1.35zM306.33 158.09l-2.74 4.46c-.33.74-2.08 0-1.75-.78l2.74-5c.52-.71 2.27.65 1.75 1.32zM310.11 160.32l-2.76 4.48c-.3.63-2-.17-1.72-.8l2.73-5c.52-.7 2.27.65 1.75 1.32zM294.63 158.18a1 1 0 012 .08l-.79 7.46c0 1.08-1.13 1.08-1.13 0z"/><path class="cls-22" d="M287.73 174.28a8.23 8.23 0 014.11-4.84c3.58-1.68 12.09 1.51 16.79-1.11a48.24 48.24 0 005-3.93M268 159.53s5 2.26 7.39 5.24c1.06 1.35 2.53 8.57 2.53 8.57"/><path class="cls-18" d="M225.8 179.54c0 1.25-14.94 2.27-33.36 2.27s-33.36-1-33.36-2.27 14.94-2.26 33.36-2.26 33.36 1.02 33.36 2.26z"/><path class="cls-19" d="M165.89 156s.66-1.69 6.5.53c3.17 1.2 7.3 4.1 15.33.6 0 0 2.45 8.12-7.79 7.41a17 17 0 01-14.04-8.54z"/><path class="cls-20" d="M222.84 169l2.37.62c1.34.72 1.27 4.3.16 5.41 0 0-9.58 5.6-37.62 6.08-16.13-.31-26.91-3.07-27.41-4.17s-.54-3.54-.45-5.28l3.05-3.54z"/><path class="cls-8" d="M165.89 156s-3.17 3-3.54 5.53c-.54 3.59-1.15 5.37-.76 9 0 0 9.1 3.55 24.25 3.73a156.92 156.92 0 0026.06-1.77c6.68-1.19 13.31-2.79 13.31-2.79-1.93-6.75-7.77-4.24-16.09-6.88C203.46 161 190 149.87 190 149.87s-3.12 2.32-3.29 3.51c-.11.75 1.38 2.71 1.38 2.71s-.37 6.38-6.75 6.81c-6.21.41-15.45-6.9-15.45-6.9z"/><path class="cls-21" d="M225.21 169.66a36.6 36.6 0 01-12.38 4.84c-7.5 1.45-19.76 1.94-27.4 1.65-8.44-.33-25.54-4.45-25.54-4.45"/><path class="cls-23" d="M188.08 156.09a21.19 21.19 0 014.37.41c2.69.94 10.48 7.16 16.32 7.9"/><path class="cls-20" d="M197.72 155.85l-2.6 4.21c-.36.49-1.91-.63-1.56-1.12l2.44-4.44c.49-.67 2.24.68 1.72 1.35zM201.51 158.09l-2.74 4.46c-.33.74-2.08 0-1.75-.78l2.74-5c.52-.71 2.24.65 1.75 1.32zM205.3 160.32l-2.77 4.48c-.3.63-2-.17-1.72-.8l2.74-5c.52-.7 2.27.65 1.75 1.32zM189.82 158.18a1 1 0 012 .08l-.79 7.46c0 1.08-1.13 1.08-1.13 0z"/><path class="cls-23" d="M182.91 174.28a8.23 8.23 0 014.11-4.84c3.58-1.68 12.09 1.51 16.8-1.11a49 49 0 005-3.93M163.18 159.53s5 2.26 7.39 5.24c1.06 1.35 2.53 8.57 2.53 8.57"/><path class="cls-18" d="M430.64 179.54c0 1.25-14.93 2.27-33.36 2.27s-33.36-1-33.36-2.27 14.94-2.26 33.36-2.26 33.36 1.02 33.36 2.26z"/><path d="M370.73 156s.66-1.69 6.51.53c3.16 1.2 7.29 4.1 15.33.6 0 0 2.44 8.12-7.79 7.41a17 17 0 01-14.05-8.54z" fill="#3c8460"/><path class="cls-20" d="M427.68 169l2.37.62c1.35.72 1.27 4.3.16 5.41 0 0-9.57 5.6-37.62 6.08-16.13-.31-26.91-3.07-27.41-4.17s-.54-3.54-.44-5.28l3-3.54z"/><path class="cls-4" d="M370.73 156s-3.16 3-3.54 5.53c-.54 3.59-1.14 5.37-.76 9 0 0 9.1 3.55 24.25 3.73a156.92 156.92 0 0026.06-1.77c6.69-1.19 13.31-2.79 13.31-2.79-1.93-6.75-7.77-4.24-16.09-6.88-5.65-1.79-19.13-12.91-19.13-12.91s-3.12 2.32-3.29 3.51c-.1.75 1.38 2.71 1.38 2.71s-.37 6.38-6.74 6.81c-6.18.37-15.45-6.94-15.45-6.94z"/><path class="cls-21" d="M430.05 169.66a36.6 36.6 0 01-12.37 4.84c-7.51 1.45-19.77 1.94-27.41 1.65-8.44-.33-25.53-4.45-25.53-4.45"/><path class="cls-23" d="M392.92 156.09a21.19 21.19 0 014.37.41c2.7.94 10.49 7.16 16.32 7.9"/><path class="cls-20" d="M402.57 155.85l-2.57 4.21c-.35.49-1.91-.63-1.56-1.12l2.41-4.44c.48-.67 2.24.68 1.72 1.35zM406.35 158.09l-2.73 4.46c-.34.74-2.09 0-1.75-.78l2.73-5c.52-.71 2.27.65 1.75 1.32zM410.14 160.32l-2.77 4.48c-.3.63-2-.17-1.72-.8l2.74-5c.52-.7 2.27.65 1.75 1.32zM394.66 158.18a1 1 0 012 .08l-.79 7.46c0 1.08-1.13 1.08-1.13 0z"/><path class="cls-23" d="M387.75 174.28a8.27 8.27 0 014.11-4.84c3.58-1.68 12.09 1.51 16.8-1.11a49 49 0 004.95-3.93M368 159.53s5.05 2.26 7.4 5.24c1.05 1.35 2.53 8.57 2.53 8.57"/><path class="cls-11" d="M259.59 139.8v.11c0 .51-.13.74-.43.74h-2.89c-.3 0-.43-.23-.43-.74v-.11c0-.52.13-.74.43-.74h2.89c.3 0 .43.22.43.74zM266.31 135.79c0 2.06-1.14 2.49-2.13 2.49s-2.13-.43-2.13-2.49 1.13-2.48 2.13-2.48 2.13.42 2.13 2.48zm-2.81 0c0 .58.12 1.27.68 1.27s.66-.69.66-1.27-.11-1.21-.66-1.21-.68.63-.68 1.21zm6.76-2.19a.46.46 0 01-.07.21l-5.06 9.59a.67.67 0 01-.63.41h-.62c-.2 0-.3-.09-.3-.19a.61.61 0 01.07-.22l5.07-9.59a.66.66 0 01.62-.42h.66c.17 0 .26.09.26.21zm1.54 7.82c0 2.05-1.14 2.48-2.13 2.48s-2.13-.43-2.13-2.48 1.14-2.49 2.13-2.49 2.13.43 2.13 2.49zm-2.81 0c0 .57.13 1.27.68 1.27s.67-.7.67-1.27-.12-1.22-.67-1.22-.67.64-.67 1.22z"/><path class="cls-2" d="M320.28 188.17v1c1.39 0 3.86.58 3.86 1.39 0 .36-.54 1.29-.78 1.29a8.31 8.31 0 00-3.08-.93v5.69c2.17.78 4.66 1.66 4.66 5 0 2.79-1.8 4.54-4.66 4.79v1.22c0 .26-.15.39-.49.39s-.48-.13-.48-.39v-1.2c-2.76-.07-4.84-1.12-4.84-1.78 0-.39.59-1.32.86-1.32a8.74 8.74 0 004 1.34v-6.29c-2.15-.83-4.52-1.69-4.52-4.83 0-2.39 1.76-4 4.52-4.35v-1c0-.27.14-.39.48-.39s.47.1.47.37zm-3.28 5.46c0 1.4 1 2.05 2.3 2.59V191a2.51 2.51 0 00-2.3 2.63zm3.27 11a2.9 2.9 0 002.44-3c0-1.53-1.1-2.27-2.44-2.85z"/><rect class="cls-2" x="266.34" y="198.76" width="46.89" height="8.45" rx="3.93" ry="3.93"/><path class="cls-25" d="M594.29 390.65H2.34a2.33 2.33 0 01-1.46-4.15l88.66-70.82a10.94 10.94 0 016.83-2.35h403.89a10.94 10.94 0 016.83 2.35l88.66 70.82a2.33 2.33 0 01-1.46 4.15z"/><path class="cls-26" d="M592 361.7H4.6l91.09-72.76a10.62 10.62 0 016.63-2.29h392a10.62 10.62 0 016.63 2.29z"/><path class="cls-12" d="M533.8 355.19H62.83l66.31-62.03h338.35l66.31 62.03z"/><path class="cls-7" d="M528.02 355.19H68.61l64.68-59.37h330.05l64.68 59.37z"/><path class="cls-12" d="M4.6 361.7H592v5.2a14.32 14.32 0 01-14.32 14.32H18.92A14.32 14.32 0 014.6 366.9v-5.2z"/><path stroke-width=".97" stroke-miterlimit="10" stroke="#fff" fill="none" d="M4.6 369.29h587.43"/><rect class="cls-11" x="116.87" y="364.73" width="89.91" height="10.26" rx="4.78" ry="4.78"/><rect class="cls-26" x="116.87" y="365.88" width="89.91" height="9.11" rx="4.24" ry="4.24"/><path class="cls-12" d="M490.34 304.55l33.38 29.52h17.88v-2.35l-51.26-29.52v2.35z"/><path fill="#fdeeff" d="M490.34 302.2l33.38 29.52h17.88l-37.11-29.52h-14.15z"/><ellipse class="cls-7" cx="82.65" cy="316.29" rx="14.04" ry="6.11"/><path class="cls-11" d="M92.49 315.84c0 2.11-4.4 3.83-9.84 3.83s-9.83-1.72-9.83-3.83 4.4-3.83 9.83-3.83 9.84 1.72 9.84 3.83z"/><path class="cls-7" d="M83.82 315c0 .73-1.52 1.32-3.39 1.32S77 315.7 77 315s1.52-1.31 3.39-1.31 3.43.56 3.43 1.31z"/><rect class="cls-26" x="138.75" y="39.64" width="350.34" height="28.75" rx="13.38" ry="13.38"/><circle class="cls-26" cx="86.11" cy="54.02" r="14.37"/><circle class="cls-26" cx="119.62" cy="54.02" r="14.37"/><path class="cls-26" d="M509.02 38.92l4.75 10.16 11.12 1.37-8.19 7.66 2.13 11-9.81-5.42-9.81 5.42 2.12-11-8.18-7.66 11.12-1.37 4.75-10.16z"/><rect class="cls-13" x="138.75" y="34.67" width="350.34" height="28.75" rx="13.38" ry="13.38"/><path class="cls-29" d="M223.31 43.75v.54c1.27 0 2.5.51 2.5 1s-.43 1.18-.73 1.18a5.45 5.45 0 00-1.77-.47v2.85c1.35.55 3 1.18 3 3.27a3.1 3.1 0 01-3 3.33v.72c0 .28-.13.39-.38.39s-.42-.11-.42-.39v-.71c-2-.06-3.27-.8-3.27-1.28s.55-1.21.82-1.21a6.3 6.3 0 002.45.78v-3.12c-1.38-.52-3-1.12-3-3.28 0-1.87 1.37-2.86 3-3.05v-.55c0-.28.13-.39.39-.39s.41.11.41.39zm-1.85 3.49c0 .61.44 1 1 1.27v-2.43a1.16 1.16 0 00-1 1.16zm1.85 6.39a1.32 1.32 0 001-1.32 1.47 1.47 0 00-1-1.32zM231.11 51.13v.13c0 .47-.12.66-.4.66h-3.13c-.28 0-.41-.19-.41-.66v-.13c0-.47.13-.67.41-.67h3.13c.29 0 .4.2.4.67zM237 46.86c0 2.15-1.24 2.61-2.29 2.61s-2.28-.46-2.28-2.61 1.21-2.61 2.28-2.61 2.29.46 2.29 2.61zm-3.17 0c0 .66.12 1.48.88 1.48s.89-.82.89-1.48-.11-1.44-.89-1.44-.86.78-.86 1.44zm7.52-2.35a.38.38 0 01-.08.18L235.59 55a.7.7 0 01-.66.39h-.47c-.22 0-.35-.08-.35-.19a.52.52 0 01.08-.2l5.69-10.34a.7.7 0 01.67-.37h.45c.24.03.37.11.37.22zm1.65 8.35c0 2.17-1.24 2.6-2.3 2.6s-2.27-.43-2.27-2.6 1.21-2.61 2.27-2.61 2.3.46 2.3 2.61zm-3.18 0c0 .66.13 1.47.88 1.47s.9-.81.9-1.47-.11-1.45-.9-1.45-.86.8-.86 1.45zM209.17 56.56H181a6.6 6.6 0 01-6.6-6.6 6.61 6.61 0 016.6-6.6h28.2a6.6 6.6 0 016.6 6.6 6.59 6.59 0 01-6.63 6.6z"/><circle class="cls-13" cx="86.11" cy="49.05" r="14.37"/><circle class="cls-13" cx="119.62" cy="49.05" r="14.37"/><path fill="#ffcc5a" stroke-width=".97" stroke="#764582" stroke-miterlimit="10" d="M509.02 33.95l4.75 10.15 11.12 1.38-8.19 7.66 2.13 11-9.81-5.42-9.81 5.42 2.12-11-8.18-7.66 11.12-1.38 4.75-10.15z"/><path class="cls-11" d="M87.89 40.29l-9.1 9.01 9.1 9.18 1.73-1.73-7.36-7.45 7.36-7.28-1.73-1.73zM118.31 58.48l9.1-9.01-9.1-9.18-1.73 1.73 7.36 7.45-7.36 7.28 1.73 1.73zM168.29 57.3l-5.8-5.73a7.35 7.35 0 001.24-4.11 7.6 7.6 0 00-12.91-5.33 7.42 7.42 0 00-2.2 5.28 7.6 7.6 0 007.58 7.5 7.6 7.6 0 004.16-1.25l5.79 5.73zm-6.81-9.84a5.23 5.23 0 01-1.54 3.69 5.31 5.31 0 01-3.72 1.52 5.32 5.32 0 01-5.32-5.26 5.16 5.16 0 011.53-3.68 5.28 5.28 0 013.74-1.53 5.35 5.35 0 015.31 5.26z"/><path d="M469.63 49.38l-3.26 3.28a1 1 0 000 1.4 1 1 0 001.39 0l3.24-3.27 3.26 3.27a1 1 0 101.4-1.4l-3.26-3.28 3.26-3.27a1 1 0 000-1.41 1 1 0 00-1.4 0L471 48l-3.26-3.28a1 1 0 00-1.39 0 1 1 0 000 1.41zM471 60a10.6 10.6 0 1110.54-10.6A10.57 10.57 0 01471 60z" fill-rule="evenodd" fill="#9d68aa"/><path class="cls-2" d="M107.25 115.93a19.45 19.45 0 10-38.89 0c0 4.46-1.34 7.39 19.44 44.7 20.88-37.48 19.43-42.4 19.45-44.7z"/><path class="cls-7" d="M87.8 125a8.59 8.59 0 118.6-8.59 8.59 8.59 0 01-8.6 8.59z"/><path class="cls-25" d="M243.89 315.46L236 329.12c-1.6 2.78.58 6.12 4 6.12h77.58c3.09 0 5.27-2.78 4.3-5.47L317 316.1a4.51 4.51 0 00-4.29-2.86h-64.82a4.58 4.58 0 00-4 2.22z"/><path class="cls-11" d="M259.78 311.66a6.9 6.9 0 11-6.9-6.89 6.9 6.9 0 016.9 6.89z"/><circle class="cls-32" cx="252.88" cy="311.66" r="4.14"/><path class="cls-33" d="M250.16 310.9l2.36-6.23a.87.87 0 01.81-.55h8.22a.86.86 0 01.63 1.44l-7.4 8a2.35 2.35 0 01-2.43.63l-.74-.25a2.32 2.32 0 01-1.45-3.04z"/><circle class="cls-11" cx="252.88" cy="311.66" r="1.59"/><path class="cls-11" d="M299.69 311.66a6.9 6.9 0 106.9-6.89 6.9 6.9 0 00-6.9 6.89z"/><path class="cls-32" d="M302.44 311.66a4.15 4.15 0 104.15-4.15 4.14 4.14 0 00-4.15 4.15z"/><path class="cls-33" d="M309.31 310.9l-2.31-6.23a.87.87 0 00-.81-.55h-8.22a.86.86 0 00-.63 1.44l7.4 8a2.35 2.35 0 002.43.63l.74-.25a2.32 2.32 0 001.4-3.04z"/><circle class="cls-11" cx="306.59" cy="311.66" r="1.59"/><path class="cls-2" d="M234.86 247.63a1 1 0 01-.94-.62c-2.33-5.4-6.22-14.21-6.92-15.32-1.05-.76-8.91-3.56-16-5.87a1 1 0 010-1.94l12.66-4.1a1.07 1.07 0 01.59 0c1.21.33 11.89 3.29 14.19 5.43 1.83 1.69 7.21 12.92 8.27 15.16a1 1 0 11-1.84.87c-2.39-5-6.63-13.43-7.82-14.54-1.42-1.32-8.63-3.65-13-4.87l-9.39 3.05c6.54 2.17 13.3 4.59 14 5.56.85 1.13 6.14 13.35 7.2 15.78a1 1 0 01-.54 1.35 1.14 1.14 0 01-.46.06z"/><path stroke="#fd6141" stroke-width="1.85" fill="#fff" stroke-linejoin="round" stroke-linecap="round" d="M232.09 242.46l11.53-7.15 88.86 4.34 2.04 5.57-102.43-2.76z"/><path class="cls-2" d="M231.25 242.64L244.7 287a3.08 3.08 0 003 2.18l74.38-2.3a3.09 3.09 0 002.9-2.35l9.5-39.31z"/><path class="cls-35" d="M251.25 261.19c4.81 10 15.44 12 25.57 11.52 21.73-1.08 40.72-9.56 53.45-27.59l-79.13-2c-1.17 0-1.75 7.57-1.81 8.56a19.41 19.41 0 001.92 9.51z"/><path class="cls-2" d="M321.94 311.46a29.06 29.06 0 00-4.13-9.1c-.7-1-1.86-2.05-4.56-2.05h-61.59c-1 0-2.71-.16-3.45-1.24s-.29-2.61.16-3.77a73.9 73.9 0 013.45-7.63l-2.4.21a54.62 54.62 0 00-2.95 6.68c-.92 2.36-.9 4.26.06 5.66s2.72 2.13 5.13 2.13H255v1.38a1.55 1.55 0 001.56 1.55h1.18a1.55 1.55 0 001.55-1.55v-1.38H300v1.38a1.54 1.54 0 001.55 1.55h1.18a1.54 1.54 0 001.55-1.55v-1.38h9c1.86 0 2.48.63 2.91 1.22A26.84 26.84 0 01320 312a1.94 1.94 0 01-.14 1.64 3.43 3.43 0 01-2.39.82c-14.27.32-45.06.15-61.59.05l-10.42-.05c-2.51 0-4.37-.71-5.25-2s-.83-3.09.07-5.33c2-4.9 7.75-19.51 7.75-19.51l-1.9-.76s-5.78 14.61-7.75 19.51c-1.46 3.65-.73 5.95.14 7.24 1.27 1.88 3.74 2.92 6.94 2.92h5.81v1.33a1.55 1.55 0 001.55 1.56H254a1.55 1.55 0 001.55-1.56v-1l.31-.31c9.42.06 23.47.14 36.46.14h10.23v1.19a1.56 1.56 0 001.56 1.56h1.18a1.56 1.56 0 001.55-1.56v-1.28c4.08 0 7.73-.07 10.68-.13a5.16 5.16 0 004-1.64 3.8 3.8 0 00.42-3.37z"/><path class="cls-7" d="M331.54 244.39l-9.22 38a2.4 2.4 0 01-2.26 1.83l-34.73 1.08q4-4.36 8-8.79c.19-.22.25-.49.13-.62s-.4-.06-.62.17q-4.29 4.43-8.5 8.92a1.31 1.31 0 00-.22.34l-30.66.95q4.29-4.63 8.51-9.32c.21-.23.28-.51.16-.64s-.41-.05-.64.19q-4.49 4.63-8.9 9.35a1.38 1.38 0 00-.27.46l-2.77.08a2.42 2.42 0 01-2.37-1.7l-6.12-20.18q2.37-2.58 4.68-5.21a.34.34 0 000-.45.33.33 0 00-.47 0c-1.52 1.53-3 3.08-4.5 4.65l-6.57-21.68-1 .29 13 42.87a3.43 3.43 0 003.28 2.43h.1l70.51-2.18a3.44 3.44 0 003.23-2.61l9.22-38z"/><path class="cls-7" d="M246.54 258.49a3.92 3.92 0 00.72-.62 4.86 4.86 0 00.57-.76.38.38 0 000-.37.37.37 0 00-.51-.12 3.92 3.92 0 00-.72.62 4.77 4.77 0 00-.57.75.43.43 0 000 .38.38.38 0 00.51.12zM248.44 256.45a.39.39 0 00.25-.11.41.41 0 00.1-.26.51.51 0 00-.53-.48.39.39 0 00-.25.11.43.43 0 00-.1.26.5.5 0 00.53.48zM256.94 247.32q3.1-3.16 6.15-6.4a.46.46 0 00-.68-.63q-3 3.26-6 6.58a.33.33 0 00.48.45zM255.87 248.51a.39.39 0 00.25-.11.41.41 0 00.1-.26.51.51 0 00-.53-.48.35.35 0 00-.25.12.38.38 0 00-.1.25.5.5 0 00.53.48zM254.74 249.73a.45.45 0 00.25-.12.41.41 0 00.1-.26.51.51 0 00-.53-.48.35.35 0 00-.25.12.38.38 0 00-.1.25.52.52 0 00.53.49zM253.61 250.94a.45.45 0 00.25-.12.41.41 0 00.1-.26.51.51 0 00-.53-.48.35.35 0 00-.25.12.38.38 0 00-.1.25.52.52 0 00.53.49zM249.74 255.09a21.71 21.71 0 002.83-3 .37.37 0 00-.53-.5 18.56 18.56 0 00-1.49 1.45 20.47 20.47 0 00-1.34 1.59.35.35 0 000 .44.36.36 0 00.53.02zM262.78 275.48c.08.2.38.19.66 0a13.26 13.26 0 002.32-2.49.61.61 0 00.13-.52c-.08-.21-.38-.19-.66 0a12.49 12.49 0 00-1.23 1.18 13.76 13.76 0 00-1.09 1.31.63.63 0 00-.13.52zM266.87 271.76a.91.91 0 00.39-.27.93.93 0 00.24-.41c.09-.39-.15-.6-.54-.48a1.36 1.36 0 00-.39.27 1.27 1.27 0 00-.24.41c-.08.4.16.61.54.48zM282.27 255.23q5.57-5.79 11.06-11.66c.31-.34.41-.75.22-.92s-.59-.05-.9.29q-5.47 5.88-10.86 11.84c-.21.23-.28.51-.16.64s.37.05.64-.19zM280.31 257.38a1.15 1.15 0 00.64-.68c.09-.39-.15-.6-.53-.47a1 1 0 00-.39.26 1.22 1.22 0 00-.25.41c-.09.39.15.6.53.48zM278.27 259.57a1.13 1.13 0 00.39-.27 1 1 0 00.24-.41c.09-.39-.15-.6-.54-.47a1.05 1.05 0 00-.39.27 1 1 0 00-.24.41c-.08.38.15.59.54.47zM276.23 261.76a1.05 1.05 0 00.39-.27 1.27 1.27 0 00.24-.41c.09-.39-.15-.6-.53-.47a.91.91 0 00-.39.27 1 1 0 00-.24.41c-.1.38.14.6.53.47zM269.21 269.28c.92-.86 1.77-1.77 2.64-2.67s1.69-1.85 2.48-2.82c.19-.23.26-.49.16-.63s-.43-.11-.69.14c-.91.85-1.77 1.77-2.63 2.67s-1.7 1.85-2.49 2.82c-.18.22-.25.49-.15.63s.47.11.68-.14zM294.74 275.06a12.49 12.49 0 001.18-1.12 11.21 11.21 0 001-1.25.63.63 0 00.12-.52c-.09-.2-.38-.19-.65 0a12.49 12.49 0 00-1.18 1.12 12.31 12.31 0 00-1 1.26.61.61 0 00-.12.51c.09.22.37.22.65 0zM298 271.55a1 1 0 00.38-.25 1.05 1.05 0 00.23-.4c.08-.38-.16-.6-.53-.48a.94.94 0 00-.38.25 1.05 1.05 0 00-.23.4c-.07.38.17.6.53.48zM312.71 255.76q5.32-5.52 10.56-11.12c.3-.32.38-.72.19-.89s-.58-.06-.87.26q-5.22 5.63-10.37 11.31c-.2.22-.26.5-.14.62s.42.06.63-.18zM310.85 257.81a1 1 0 00.6-.64c.08-.38-.15-.59-.53-.48a1 1 0 00-.37.26.85.85 0 00-.23.39c-.09.37.15.59.53.47zM308.9 259.91a1 1 0 00.37-.26 1 1 0 00.23-.39c.08-.38-.16-.59-.53-.47a1 1 0 00-.38.25 1.07 1.07 0 00-.22.39c-.09.38.15.57.53.48zM306.94 262a1 1 0 00.61-.65c.08-.37-.16-.59-.53-.47a1 1 0 00-.38.25.92.92 0 00-.22.4c-.09.37.15.58.52.47zM300.25 269.18c.87-.81 1.69-1.69 2.52-2.55s1.61-1.76 2.37-2.69a.57.57 0 00.13-.62c-.11-.16-.41-.11-.66.12-.88.82-1.7 1.69-2.52 2.56s-1.62 1.76-2.37 2.69a.55.55 0 00-.14.61c.12.17.42.11.67-.12z"/><path class="cls-35" d="M258.26 314.49l3.63-12.82h38.4l2.1 12.82h-44.13z"/><circle class="cls-11" cx="248.28" cy="327.14" r="8.1"/><path class="cls-32" d="M253.15 327.14a4.87 4.87 0 11-4.87-4.86 4.87 4.87 0 014.87 4.86z"/><path class="cls-33" d="M245.08 326.26l2.78-7.32a1 1 0 01.94-.66h9.66a1 1 0 01.74 1.7l-8.7 9.39a2.71 2.71 0 01-2.85.73l-.87-.28a2.73 2.73 0 01-1.7-3.56z"/><path class="cls-11" d="M250.14 327.14a1.86 1.86 0 11-1.86-1.86 1.87 1.87 0 011.86 1.86z"/><circle class="cls-11" cx="310.14" cy="327.14" r="8.1"/><path class="cls-32" d="M305.27 327.14a4.87 4.87 0 104.87-4.86 4.87 4.87 0 00-4.87 4.86z"/><path class="cls-33" d="M313.34 326.26l-2.78-7.32a1 1 0 00-.94-.66H300a1 1 0 00-.74 1.7l8.7 9.39a2.71 2.71 0 002.85.73l.87-.28a2.73 2.73 0 001.66-3.56z"/><path class="cls-11" d="M308.27 327.14a1.87 1.87 0 101.87-1.86 1.87 1.87 0 00-1.87 1.86z"/><circle class="cls-8" cx="331.42" cy="241.61" r="18.32" transform="rotate(-76.82 331.439 241.612)"/><path class="cls-11" d="M334.82 231.85V248h3.08c.6 0 .86.43.86 1.43v.49c0 1-.26 1.43-.86 1.43h-11.14c-.61 0-.86-.43-.86-1.43v-.49c0-1 .25-1.43.86-1.43h3.82v-12.87l-3.91.57c-.75 0-.92-1.61-.92-2.41a.8.8 0 01.75-.81l7.15-1.32c.46 0 1.17.35 1.17.69z"/><path class="cls-9" d="M258.02 227.82v14.43l34.09.89v-16.8l-34.09 1.48z"/><path fill="#f99441" d="M292.11 226.34v16.8l16.24.52v-14.38l-16.24-2.94z"/><path class="cls-8" d="M257.03 225.09l35.87-1.46v4.69l-35.87 1.49v-4.72z"/><path class="cls-9" d="M292.9 228.32l16.63 2.84v-4.44l-16.63-3.09v4.69z"/><ellipse class="cls-25" cx="179.24" cy="327.01" rx="49.29" ry="2.84"/><path class="cls-37" d="M203.05 294.47c.79 7.92 7.45 19.51 10 26 .76 1.9 4.36.84 3.95-1.17-1.38-6.85-2.34-20.71-3-27.79-.68-8.35-11.71-4.58-10.95 2.96z"/><path class="cls-1" d="M213.19 320.42a7.3 7.3 0 00.54 5.11c-.24.11-.06 1.08.37 1.29s4.16.19 4.9-.39a.8.8 0 000-.66s.92.35 3.52-.14a13.15 13.15 0 005-1.89c.31-.19.09-.88-.25-.77 0 0-.22-1.81-1.73-1.71a11.38 11.38 0 01-6.89-2 5.69 5.69 0 00-2.06-.9 3.51 3.51 0 00-3.4 2.06z"/><g clip-path="url(#clip-path)"><path class="cls-39" d="M213.73 325.53a29.34 29.34 0 005.25-.08s5.93-.1 8.26-2.48a2.78 2.78 0 014.35.15l-9.7 7.72-6.33-.49-2.82-2.35s-.24-2.61.99-2.47z"/><path class="cls-37" d="M212.72 320.59a2.45 2.45 0 002.59 1.11c1.74-.36 1.92-1.44 1.53-3.3s-5.95-.63-4.12 2.19z"/></g><path class="cls-40" d="M177.13 237.77s11.39 20.49 15.15 28.86 8.52 29.05 8.52 29.05 9.36 2 14.27-2.42c0 0-1.57-21.82-4.24-31.62S198 227.79 198 227.79c-4.08-8.63-24.95 1.35-20.87 9.98z"/><path class="cls-32" d="M186.44 253.8a39.23 39.23 0 013.22-7.78c2-3.51 6.86-6.27 7.39-5.84.91.74-6.32 6.11-7.72 10 0 0 8-5.86 8.61-5.09s-8.33 5.55-11.5 8.71z"/><path class="cls-19" d="M185.24 187.27c1.88 8.66 4.8 20.2 11.23 25.83s20.38 8.76 21 8.76c1.56.36 3.22-7.84 2-8.79s-12.21-5.38-14.16-7.26c-3.48-3.36-2-23.82-5.94-28.28s-16.32-.35-14.13 9.74z"/><path d="M220.32 214.55s4.89 4.06 5.18 5.17a5.31 5.31 0 01-.22 3.39c-.4.47-3.39 2-4.53 1.18a20 20 0 01-2.72-2.57l.54-2s-.37 1.37-3.33-.49 2.27-7.49 5.08-4.68z" fill="#f29353"/><path class="cls-37" d="M152.15 288.59c-5.9 5.35-11.27 17.59-14.94 23.51-1.08 1.74 1.92 4 3.3 2.49 4.68-5.19 15.27-14.19 20.58-18.9 6.26-5.55-3.33-12.19-8.94-7.1z"/><path class="cls-1" d="M137.87 311.5a7.38 7.38 0 00-4 3.24c-.22-.14-.94.54-.88 1s2.12 3.58 3 3.89a.79.79 0 00.53-.38s.21 1 2 2.87a13.37 13.37 0 004.3 3.17c.33.15.8-.41.52-.64 0 0 1.39-1.17.48-2.38a11.34 11.34 0 01-2.06-6.87 5.7 5.7 0 00-.37-2.21 3.52 3.52 0 00-3.52-1.69z"/><g clip-path="url(#clip-path-2)"><path class="cls-39" d="M133.88 314.74a29.12 29.12 0 002.94 4.36s3.31 4.91 6.58 5.57a2.78 2.78 0 012.24 3.73l-11.76-3.92-3-5.57.46-3.67s1.99-1.6 2.54-.5z"/><path class="cls-37" d="M137.47 311.21A2.44 2.44 0 00138 314c1.26 1.26 2.25.83 3.6-.52s-2.76-5.35-4.13-2.27z"/></g><path class="cls-11" d="M165.07 230.08s1.57 30-1.8 37.91-12.13 20.68-12.13 20.68a13.48 13.48 0 0011.29 8.52s13.39-9.43 18.65-23.72 9.66-30 7.53-41.67c-1.19-6.55-21.85-11.29-23.54-1.72z"/><path d="M169 229.81s.19 25-1 34.69c-1.13 9.39-15.56 26.68-15.56 26.68" stroke-width=".5" stroke-miterlimit="10" stroke="#fff" fill="none"/><path class="cls-7" d="M198.69 178.21c2.32 4.61-1.81 22.09-1.81 29.72a124.44 124.44 0 001.94 20.51 2.44 2.44 0 01-1.15 2.66 30.17 30.17 0 01-11.26 3.49c-11.3 1.08-16.77-.9-19.34-1.87a3.14 3.14 0 01-2-3.4c.57-3.82 2.18-13.16.8-21.75-1.81-11.25-4.75-26.54.52-31.26s15.15-7.66 15.15-7.66 14.3 3.88 17.15 9.56z"/><path class="cls-32" d="M183.94 163.87s-2.53-.43-6-4.75c-2.28-2.83-5.45-15.65 4.6-17.59s13 4.86 13.47 9.3-4.52 8.11-6.78 9.71-5.29 3.33-5.29 3.33z"/><path class="cls-37" d="M181.49 158.7a29.23 29.23 0 01-1.45 6.91 11.19 11.19 0 01-3.82 5.25c-1.45 1.29 5.77 9 12.21 10.91 0 0 4.66-5.68 2.52-8.85s-3.83-3.45-3.07-7.68c.67-3.68 1.07-5.73 1.07-5.73z"/><path class="cls-44" d="M181.49 158.7s-.32 2.87.83 4.1 3.23 4.2 8 3.86c6.31-.46 3.86-10.47 3.86-10.47a22.14 22.14 0 000-7c-.66-3.16-6.9-4.82-12-3.27 0 0-1.46 1.39-.9 7.6a1.88 1.88 0 00-2.41-.32c-1.12.61-1.24 2.05-.86 3.41.42 1.62 2.12 3.03 3.48 2.09z"/><path class="cls-45" d="M181 158.1l-.56-1.48 1-.39s-.62-2.76-2.16-1.74c-1.34.84.11 4.17 1.72 3.61z"/><path class="cls-32" d="M181.64 155.9a39.84 39.84 0 00-.53 5.62c.09 1.73 1.8 7.12 9.7 6.64s5-9 3.7-9.56a2.34 2.34 0 01-.78 1.87 2.1 2.1 0 00-2.53-1.09c-1.12-.63-2.41-.24-3.76.57l-1 .69a5 5 0 01-4-4.63z"/><path class="cls-7" d="M188.43 160.78s4.14 0 4.24.28-.49.85-2.12.85a2.21 2.21 0 01-2.12-1.13z"/><path class="cls-45" d="M188.31 160.71c.22-.12.2 0 .26-.06h1.01l1.16.05c.39 0 .77 0 1.16.08a3.69 3.69 0 01.58.09.49.49 0 01.16.05.18.18 0 01.1.18.45.45 0 01-.15.29 3.37 3.37 0 01-2.26.56 2.64 2.64 0 01-1.16-.31 1.9 1.9 0 01-.49-.35 1.45 1.45 0 01-.21-.22l-.09-.13v-.07s-.11-.12-.07-.16zm.23.15c.05 0 0-.16 0-.12v.06l.07.11a1.81 1.81 0 00.18.21 1.7 1.7 0 00.42.34 2.46 2.46 0 001.07.31 3.3 3.3 0 002.15-.47c.38-.37-.28-.3-.6-.37s-.77 0-1.16-.05h-2.15s-.1.12.02-.02z"/><path class="cls-32" d="M189 155.66c0 .35-.49.38-1.05.33s-1-.15-1-.5.51-.59 1.07-.55.98.37.98.72zM185.26 154a17.93 17.93 0 012.1-.5 13.13 13.13 0 002.61.13 2.85 2.85 0 00.29-.84 20.62 20.62 0 00-3.17-.12 3.55 3.55 0 00-1.83 1.33zM194.11 156.09c0 .35-.49.38-1.05.33s-1-.15-1-.5.5-.59 1.06-.55 1.02.37.99.72zM194.82 154.79c0 .05-.69-.83-1-.9s-2 .08-2.1-.13a3.5 3.5 0 01-.08-.87 14.32 14.32 0 012.58.38 2.4 2.4 0 01.6 1.52z"/><path class="cls-46" d="M191.22 159.08s-1.29 0-1.26-.4 2.74-.74 2.89-.48-1.05.72-1.63.88z"/><path class="cls-45" d="M191.44 153.69a6.73 6.73 0 00-.18 2.21c.19.59 1.38 1.9 1.41 2.18s-1.35 1-1.45 1 2-.27 1.9-.91-1.59-2.24-1.65-2.56-.03-1.92-.03-1.92z"/><path class="cls-32" d="M182.2 156.38c.4-.27 1.06-2.62.36-4.87a2.81 2.81 0 012.09-3.64c1.28-.14 5.45 1 7.1.84 3.62-.44 6.42-1.51 6.41-2.18s-2.65 0-2.65 0 4-1 3.67-4.4a16.54 16.54 0 01-5.74-.71c-2.71-.92-9.18-2-12.63.56-2.25 1.67-3.86 7.13-.87 9.91 1.36 1.29 1.49 5.01 2.26 4.49z"/><path d="M191.6 178.29s-1.72 34.21-1.34 37.43-.25 15.58 7.56 18c0 0-3.49-17.85-3-28.57s-3.22-26.86-3.22-26.86z" style="mix-blend-mode:multiply" opacity=".7" fill="#a1abad" fill-rule="evenodd"/><path class="cls-2" d="M189.11 170.55a87.56 87.56 0 013.17 24.67c-.19 14-.76 42.61 9.58 41.95 0 0-4.36-17.6-4.09-24s3.73-29.89 2.45-33.92c-1.84-5.82-11.11-8.7-11.11-8.7zM177.24 170s7 10.91 9.2 29.39c1.07 8.8-.12 22.76-1.45 31.68-1.54 10.26-21.62 10.24-22.91 7.55s4.46-19.73 2.67-29.42-2.85-25.5-.71-30.7 13.2-8.5 13.2-8.5z"/><path d="M167.17 188.56s3.42 16.49 3 25.22-3.22 26.36-3.22 26.36" stroke-width=".5" stroke="#fff" stroke-linejoin="round" stroke-linecap="round" fill="none"/><path class="cls-19" d="M164.76 179.87a16.54 16.54 0 00-.91 4.31c1.88 14.38 10 30.5 22.4 36.28.41-4.67.65-9.6.59-14-8.33-8.29-14.69-19.07-19.57-29.69a8.38 8.38 0 00-2.51 3.1z"/><path class="cls-37" d="M213.42 217.42s6.19 1.45 6.94 2.31 2 3.8 1.88 4.39-3.43 1.89-4.8 1.7a10.7 10.7 0 01-2.87-1c.21-.73.15-1.39-.61-1.63s-1.66.19-3.06.82c-3.19 1.47-1.26-7.85 2.52-6.59z"/><path class="cls-35" d="M163.76 187.44c1.66 9.23 13.47 23 18.52 27.33 4.42 3.8 26.28 10.25 27.25 10.3 2.24.47 5.09-7.59 3.35-8.63s-21.23-10-23.34-12.35-9.85-23.19-15.34-28-12.32.91-10.44 11.35z"/><path d="M519.4 172.6c9-12.91 18.2-10.11 21.6-4.66s.94 13.52-6.13 20.21c-5.07 5.08-15.23 8.62-23.38 10.56-5.71-6.14-12.19-14.72-13.59-21.77-2.17-9.48.28-17.57 6.13-20.21s15.09.16 15.37 15.87z" fill-rule="evenodd" fill="#fd6141"/><path d="M541 167.94c-2.9-4.65-10.06-7.37-17.67 0 6.48-5.11 15.77-5.21 16.58 4.14.85 9.81-7 16.52-16.07 14.81-11.89-2.25-9-12.22-14.61-17.1-4.42-3.72-9.66 1.9-9.89 6.5a27.33 27.33 0 00.46 6.16c2.68 5.68 7.4 11.67 11.69 16.28 8.15-1.94 18.31-5.48 23.38-10.56 7.07-6.71 9.53-14.79 6.13-20.23z" fill="#dd4026" fill-rule="evenodd" opacity=".5"/><ellipse class="cls-25" cx="409.79" cy="326.02" rx="49.29" ry="2.84"/><path class="cls-2" d="M418.87 314.92a28.69 28.69 0 012.38 2.29c.34.5 1.66 4.23 1.66 4.23a3.2 3.2 0 01-2.06 1.42l-1.66-2.14s-.84 3.74-1.7 4.95c-1 1.46-7 3.15-7.86 2.7 0 0-1.09-2.17.77-3.36 3.44-2.2 3.52-6.82 3.52-6.82a3.23 3.23 0 014.95-3.27z"/><g clip-path="url(#clip-path-3)"><path class="cls-19" d="M408.93 328.05c.11-.06 7.6-1.07 8.48-3.28.69-1.73 1.15-4.64 1.56-5s2.28-2.58 2.28-2.58l3 5.22-11.25 9.51z"/></g><path class="cls-53" d="M412.53 323.06l1 .22a3.5 3.5 0 00.66-1.89l-1-.35a.36.36 0 00-.45.21l-.49 1.35a.35.35 0 00.28.46z"/><path class="cls-37" d="M405.71 211.59c0-.36-9.51 41.87-9.17 53.22.21 7.07 13.43 39.62 17.38 53.38.76 2.63 4.86-.46 4.54-3.2-1.55-13.17-1.45-20.09-7.26-48.71-.91-4.45 15.08-44.39 13.82-53.75s-14.32-14.45-19.31-.94z"/><path class="cls-54" d="M425 212.53c-1.27-9.36-14.32-14.45-19.31-.94 0-.34-8.61 37.86-9.15 51.35 4.26-3.24 9.93-1.53 14.83 1.05 1.91-9.75 14.79-42.99 13.63-51.46z"/><path class="cls-2" d="M432.49 317.66a27.72 27.72 0 011.42 3c.14.59 0 4.53 0 4.53a3.16 3.16 0 01-2.43.6l-.79-2.58a10.8 10.8 0 01-2.45 3.35c-1.49 1-6.79 2.23-7.68 1.79 0 0-1.22-2.37.75-3.38 4.92-2.52 5.35-6 5.35-6a3.24 3.24 0 015.83-1.31z"/><g clip-path="url(#clip-path-4)"><path class="cls-19" d="M420 328.11c.11 0 6.17-.59 7.63-1.75s2.73-3.93 3.22-4.11 3.06-1.59 3.06-1.59l.94 5.94-13.91 4.86z"/></g><path class="cls-53" d="M423.91 323.39l.88.57a3.53 3.53 0 001.29-1.54l-.81-.68a.34.34 0 00-.49 0l-.95 1.08a.37.37 0 00.08.57z"/><path class="cls-37" d="M415.07 214.31c-.08 3.68.49 42.88 3.88 53.61 2.12 6.69 6.56 38.78 8.06 49.75.55 4 4.9 4 5.21.18 1.17-14.2 5.76-34 .55-51.31-1.3-4.33 4.73-49.09 1-57.61s-18.43-8.21-18.7 5.38z"/><path class="cls-54" d="M432.59 263.64c.12-11.07 4.49-47.15 1.17-54.71-3.73-8.53-18.42-8.21-18.69 5.38-.07 3.39.41 36.86 3.13 50.53 4.24-2.39 9.6-2.59 14.39-1.2z"/><path class="cls-2" d="M406.13 207l-.42 3.85s-6.9 17.48-9.87 45.85c7.35-2 21.24 4.76 41.84 1.87 0 0 8.15-36.34-6-52.5s-24.81-7.63-25.55.93z"/><path class="cls-19" d="M406.15 210.7s-.55 5.44 8.87 6.4 18.75-5.84 18.51-7.84-27.38 1.44-27.38 1.44z"/><path d="M429.39 208s10.78 17.93 4.15 49.94" stroke-width=".5" stroke-miterlimit="10" stroke="#fff" stroke-linecap="round" fill="none"/><path class="cls-37" d="M367.81 196.74a36.28 36.28 0 00-4.66-.06 25 25 0 00-2.69 1.18c-1.07.54 0 1.32.8 1.24a12.88 12.88 0 012.06-.23 3.25 3.25 0 01.7.18 16.25 16.25 0 01-3.56 2.13c-.77.3-1.46.5-2.57.86-.5.16-.42.81.15.91a6.76 6.76 0 003-.37c.48-.18 1-.38 1.4-.59a9.8 9.8 0 01-1.52.88c-.73.33-1.47.46-2.53.86-.49.18-.35.74.22.82a4.8 4.8 0 00.8 0c-.2.26-.06.66.39.72a5.1 5.1 0 001.21-.1.46.46 0 00.43.28c4 0 6.34-2.16 8.52-2.67 3.44-3.45.44-5.55-2.15-6.04z"/><path class="cls-40" d="M414 168.42c-2.7-1.54-7.31-2-11 3.14s-5.14 17.35-9 21.44c-2.29 2.45-23.15 3.16-24.63 3.91-1 .48-.39 5.12-.08 6 .67 1.8 23.25 2.76 29.39.34s21.15-31.54 15.32-34.83z"/><path class="cls-32" d="M405.3 145.36c.17-1.88.16-5 2.41-7.75s11-5.45 15.63-2.27c5.65 3.92 3.8 7.58 10.85 10.43s4.92 6 2.9 9.21-1.3 3.76 2 7.13 7.58 11.79 0 16.59-24 1.65-30.57-4.68 1.18-10.51-.65-14.29-4-2.95-4-7c0-3.03 1.18-4.45 1.43-7.37z"/><path class="cls-11" d="M419.53 163.92s-15 2.5-15.45 7.06c-.21 1.91 2.39 5.77 1.72 7.73-1 2.86-2.55 4.52.34 11.32 2.34 5.49-1.67 16.87-1.55 18.22.45 5.06 8.48 6 11.77 5.91 4.69-.11 18.19-3.13 18.19-6.09 0-2.56-6.25-8.07-6.86-12.47s10.83-22 8.56-25.83c-4.39-7.43-16.72-5.85-16.72-5.85z"/><path class="cls-37" d="M433.87 211.07a35.72 35.72 0 00-4.45 1.37 23.91 23.91 0 00-2.2 1.94c-.86.85.38 1.26 1.14 1a14.6 14.6 0 011.89-.86 3.67 3.67 0 01.72 0 16.44 16.44 0 01-2.74 3.12c-.64.52-1.24.92-2.18 1.6-.43.3-.15.9.42.83a6.94 6.94 0 002.71-1.27c.4-.32.8-.66 1.16-1a11 11 0 01-1.18 1.3c-.6.54-1.25.89-2.14 1.59-.41.32-.11.82.45.73a7.53 7.53 0 00.78-.21c-.11.31.15.65.6.57a5.31 5.31 0 001.11-.46.54.54 0 00.5.13c2.35-.54 6.38-3.93 7.29-5.15 2.25-4.47-1.26-5.55-3.88-5.23z"/><path class="cls-11" d="M430.61 166.09c-2.42 1.95-4.58 6.06-1.1 11.33s13.41 10.77 15.83 15.87c1.44 3-12 16.06-12 17.72s2.53 5.71 3.5 6.18c1.73.84 20.55-17.43 20.55-24s-21.6-31.29-26.78-27.1z"/><path class="cls-37" d="M421.81 152.39a29.32 29.32 0 001.45 6.91 11.05 11.05 0 003.82 5.25c1.45 1.29-5.78 9-12.21 10.91 0 0-4.66-5.69-2.52-8.85s3.83-3.45 3.06-7.68c-.66-3.68-1.06-5.73-1.06-5.73z"/><path class="cls-7" d="M411.87 154.36c0 1.81-.75 3.29-1.66 3.29s-1.67-1.48-1.67-3.29a4.51 4.51 0 01.85-2.86c.16-.2 0-.36-.2-.15a4.67 4.67 0 00-.9 3c0 2 .84 3.54 1.92 3.54s1.91-1.56 1.91-3.54a4.75 4.75 0 00-.54-2.48c0 .05-.14.13-.18.18a5.17 5.17 0 01.47 2.31z"/><path class="cls-44" d="M421.81 152.39s-1.05 7.9-8.47 7.34c-3.72-.28-5.63-7.93-4.17-9.85a22.14 22.14 0 010-7c.66-3.17 6.9-4.82 12-3.27 0 0 1.46 1.39.9 7.6a1.9 1.9 0 012.42-.32c1.12.61 1.24 2.05.86 3.41-.48 1.62-2.18 3.03-3.54 2.09z"/><path class="cls-45" d="M422.33 151.79l.56-1.48-.95-.39s.61-2.76 2.15-1.74c1.27.82-.18 4.17-1.76 3.61z"/><path class="cls-7" d="M424.7 154.36c0 1.81-.75 3.29-1.67 3.29s-1.66-1.48-1.66-3.29a4.51 4.51 0 01.85-2.86c.16-.2 0-.36-.2-.15a4.67 4.67 0 00-.9 3c0 2 .84 3.54 1.91 3.54s1.92-1.56 1.92-3.54a4.85 4.85 0 00-.54-2.48c0 .05-.14.13-.19.18a5 5 0 01.48 2.31z"/><path class="cls-2" d="M411.39 154.8s.5-1.23 4.4-.83c-.45 2.03-4.09 3.08-4.4.83z"/><g style="mix-blend-mode:multiply"><path class="cls-45" d="M411.39 154.8a13.13 13.13 0 004.4-.83M411.39 154.8a33.11 33.11 0 004.4-.83 6.78 6.78 0 01-2.14.73 8.17 8.17 0 01-2.26.1z"/></g><path class="cls-32" d="M409.19 149.78c0 .35.49.37 1.05.33s1-.15 1-.5-.51-.6-1.07-.55-1.01.37-.98.72zM408 148.32c0 .05 1.3-1.12 1.65-1.1s1.67.5 1.8.32a2.81 2.81 0 00.26-.58 10 10 0 00-2.24-.22 3.94 3.94 0 00-1.47 1.58zM414.33 149.35c0 .35.49.37 1.05.33s1-.15 1-.5-.51-.6-1.07-.55-1.01.37-.98.72zM417.66 147.12a9.65 9.65 0 00-2.19-.57c-.44.11-1.85.83-2 .68a2.29 2.29 0 01-.4-.51 15.74 15.74 0 012.57-.68 4 4 0 012.02 1.08z"/><path class="cls-46" d="M412.08 152.77s1.29 0 1.26-.4-2.74-.74-2.89-.49 1.04.73 1.63.89z"/><path class="cls-45" d="M411.85 147.38a6.66 6.66 0 01.19 2.21c-.2.59-1.39 1.9-1.41 2.18s1.35 1 1.45 1-2-.27-1.9-.91 1.59-2.24 1.65-2.56.02-1.92.02-1.92z"/><path class="cls-32" d="M419.53 140.17c-6.19.65-8.93 6.47-13.46 6.47-2.8-4.87 5.76-17.23 15.87-7.63 4.63 4.4.45 7.77.45 7.77l-1 3.56s.09-2.67-.86-3.7a5.79 5.79 0 01-1-6.47z"/><path d="M379.07 107.38l-63.54-15.64-8-2a5.83 5.83 0 00-7.1 4.26l-6.31 25.64-.36 1.46-2.88 11.73a5.83 5.83 0 004.27 7.06l70.43 17.34a5.83 5.83 0 007.06-4.27l.85-3.43 2.4-9.76 3.5-14.24 3.09-12.53a4.66 4.66 0 00-3.41-5.62z" opacity=".3" fill="#764582"/><rect class="cls-9" x="293.3" y="95.36" width="84.21" height="51.66" rx="5.83" ry="5.83" transform="rotate(13.83 335.306 121.147)"/><path class="cls-8" d="M304.13 101.44c-2.39 6.39-1.59 15.18 4.8 18.37 22.89 13.64 47.27 12.43 69.33 3.44l3.08-12.55a4.66 4.66 0 00-3.41-5.64l-63.54-15.64c-4.76 2.7-8.18 7.35-10.26 12.02z"/><path class="cls-11" transform="rotate(13.83 332.597 132.269)" d="M290.56 127.28h84.21v10.06h-84.21z"/><rect class="cls-11" x="301.62" y="95.88" width="30.13" height="5.03" rx="2.34" ry="2.34" transform="rotate(13.83 316.603 98.357)"/><rect class="cls-11" x="299.8" y="105.92" width="52.5" height="2.51" rx="1.17" ry="1.17" transform="rotate(13.83 325.951 107.138)"/><rect class="cls-7" x="337.29" y="119.97" width="4.93" height="3.54" rx="1.65" ry="1.65" transform="rotate(13.82 339.87 121.785)"/><rect class="cls-7" x="343.37" y="121.47" width="4.93" height="3.54" rx="1.65" ry="1.65" transform="rotate(13.83 345.72 123.189)"/><rect class="cls-7" x="349.46" y="122.97" width="4.93" height="3.54" rx="1.65" ry="1.65" transform="rotate(13.83 351.797 124.67)"/><path class="cls-2" d="M366.69 108.64a5.48 5.48 0 10-6.07 8 5.43 5.43 0 004.26-.71 5.44 5.44 0 011.81-7.32zM370.94 107.93a5.41 5.41 0 00-4.25.71 5.47 5.47 0 01-1.81 7.32 5.47 5.47 0 106.06-8z"/></g></g></g></svg>